<?xml version="1.0" encoding="UTF-8"?>
<!-- Created with Inkscape (http://www.inkscape.org/) -->
<svg width="210mm" height="297mm" version="1.1" viewBox="0 0 210 297" xml:space="preserve" xmlns="http://www.w3.org/2000/svg"><path d="m48 188h-0.9l-1-2-0.2-3 1-3 1-2 4-1 1 0.3 0.9-0.3 2-3 1-4 3-11 1-7 0.4-5 2-2 7 0.7 3-2 1-2 2-4 2-4 3-3-2-0.3 1-0.4-2-0.4-2-1-2-2 0.8-0.08 0.4 0.06v-0.4l-1-0.5 2 0.03-0.2 0.5 2 0.6 0.4-0.3 2 1h0.7l-0.3 0.7 0.8 0.3h0.2l-0.3-0.8 0.6-0.8-4-0.8-2-0.7-2-1h-0.5l-3-3 0.4 0.8-1-1v-0.6l-2-1v-0.5l-2-2-1-2 1 1-0.2-0.5-0.7-1-0.4 0.6-1-3-1-0.9v-0.5h0.5l0.8 2 0.7-0.5 0.6 2-0.2 0.7 0.2-0.4 1 1 0.02-0.4-0.6-1 0.6-0.6-0.5-0.9-0.8-4-0.8-4 0.3-3 1-3 0.3 0.3-0.6 1-0.8 3 0.03 2 0.4 2 0.3-4 1-3 2-3 3-3 2-1 3-1 0.8 0.05-8 5-2 2 0.3 0.5-0.8 0.8-1 4-0.5 4-2e-3 3 0.5-0.7 0.6 2 3e-3 0.7h0.4l0.9 2-0.3-1-0.8-2-0.6-4 0.4-3 0.5-0.3v-2l1-2 0.2 1-0.02-2 0.9-1-0.3-0.5 4-4 4-2 1 0.01-5 3h-0.5l-1 1 0.1 0.2-1 2v0.4l0.6-0.4-1 2-0.6 1-0.8 3-0.6 3 0.6 6 0.6 1-0.4-4 0.1-4 0.6-0.6v-1l0.5-1 0.3-2 0.4 0.7 0.3-2 0.8-0.6v-0.9l2-2v0.5l2-3 0.7 0.3-0.3-0.5 0.9-0.8 3-1 2 0.08-2 0.4 2 0.1-4 2-0.4-0.06-0.5 0.8h-0.7l-4 5-2 6-0.06 7 0.5 0.2-0.05 2 0.8-0.3v-0.5l-0.5 0.3 0.3-1 0.7 2 0.02-0.8-1-2-0.02-6 1-3v-0.1h0.9l-0.5 0.7-0.3 2 0.6-2 0.3-0.8 0.05-0.4 3-3h0.5l-3 3-1 4 0.6 5 0.5 1-0.3-4 1-4 0.9-2h0.4l-1 3-0.08 6 0.4-4 1-2 0.7-0.4-1 4-0.02 4 1 3-0.5 0.3-0.5-0.7-8e-3 -0.8-0.7-1-0.3-1-0.06 1 0.5 0.5 0.5 2 1 2 0.8-0.3v0.6l2 2v0.5l2 3h0.5l-1-1-0.7-1 2 2 0.02 0.7 5 2h2l4-2 3-0.6 5 0.6 14-5 6-6 2-1 3-0.8h5l5-2 1-2 1-3 0.5-7 0.5-4 0.5-0.5v-0.5l-2-0.6-2-3 0.2-0.6 4-0.2-1-1-3-1-2-2-0.5 0.01-5 5-3 2-3 1-5 0.8-4-0.6-5-2-4-2-2-2-0.4-1h0.6l11 4 12-5 6-6 0.01-1 0.6-0.6 3-0.01 3-2-7-2-28 10-5 0.4-6-0.4-4-2-4-2-4-3-2-3-1-3 0.5-0.5 6 6 13 4 16-6h0.5l2-2 0.6-2e-3 1-1h0.8l2-1h1v-0.4l1-0.6h1l2-0.8 7-0.6 4 0.3 3 0.8 4 1 2 0.9 3 2 4 3 2 2 1 3 0.3 2 15 4 1 0.7 1 1-0.01 2-2 2-2 1-11 5-3 1v3l1 5 0.01 7-1 5-2 5 2 0.3 2 2 0.4 2-0.3 0.9 1-0.3 9-1 2 0.6 1 2 0.6 3-0.4 2-0.7 1-17 18-2 3-0.9 0.2-7 3-6 1-2-0.2v-4l-6 4-6 3-1 0.1-1-1 0.02-5 1-3 1-1h3l1-1 4 0.3 10-11v-0.3l-3-0.6-4 3-6 3-5 1-8 0.2-5-1-1 4-2 4-4 4-3 0.9-4-2e-3 -6-2-6-3h-2l-2 2-3 7-4 11-0.6 2-1 1-5 2-5 0.02-1-0.7 0.3-3 1-2 2-1 2-0.3 2 1h0.3l2-4 4-13 1-5 0.4-3-1-0.3-3-0.8-2-1h-2l-0.8 0.3-1 2-2 6-3 12-0.9 5-6 5-5 3zm13-2h0.9l-0.3-0.5 1-0.2-2-0.1 1-0.8-2 0.2-0.4 1zm-13-0.4 0.2-0.1-0.3-0.5-0.5 0.3-0.5-0.8-0.9 0.4 0.2 0.6 1 0.02 0.4 0.4zm17-0.3 0.7-0.1-0.3-0.5 0.8 0.3-0.2 0.4 2 0.09-0.4-1-0.2-1-0.05-0.8-0.5 0.7-1-0.4 0.3 0.6h-0.6v-0.8h-0.5l-0.7 1 0.1 1 0.04 0.6zm-0.2-0.6-0.2 8e-3 0.8-1 0.6 0.4-1 0.7zm2-0.8h-0.1v-0.3h0.3v0.3zm-5 0.2 0.3 0.03 0.8-0.3-0.3-0.5 1-0.7-0.6-1-1-0.2 0.03 0.7-0.08 1-0.9-8e-3 0.8-0.5-1 0.2-0.2 0.9 1 0.2zm0.4-0.2h-0.4l0.4-0.4 0.4 0.4zm7 0.3h0.2l0.2-0.4 0.4-2h-0.8l-0.3 1-8e-3 1zm-22-0.5 0.9-0.2-0.3 0.5h0.5l1-0.7 0.1-0.9-0.4 0.3-0.2-0.6-1 0.6 0.2 0.4-1-0.3-0.3 1zm-0.3-0.3h-0.1v-0.3h0.3v0.3zm2 0h-0.1l0.3-0.5h0.3l-0.3 0.5zm5-0.8 0.9-0.6v0.7l0.3-0.3-6e-3 -0.4 0.8-0.9h-0.6l-0.9 1h-0.5l0.3-0.7-0.8-0.3 0.8-0.8-0.6-1-0.5 0.7-8e-3 -0.4-0.8 0.8v0.5l1 1h-1l-0.3 1 0.9-0.2-0.1-0.5 1-0.08-1 1zm-2-0.3h0.2l0.6-0.7-0.5-0.3 0.2-1-0.6 8e-5 -0.03 2zm10 0h0.4l-0.4-0.4-0.4 0.4zm-15-0.3h0.1v-0.3h-0.3v0.3zm2-4e-3 0.2 4e-3v-0.5l-1 8e-3 0.8 0.5zm22-0.3 0.4-0.1 2-5-0.3-0.5 1-3 0.4 1 0.1-2-0.1-0.7 0.6 0.3-0.2-0.7-0.3-3 0.7-4e-4 0.08-1h-0.4l-0.2 0.9-0.09-1-1 2v1l-0.7 0.4-0.3 3-0.4-0.7-0.8 3-0.8 3v0.8l-1 0.7 0.3 0.9 0.8 0.3-0.3-0.5 2-2-0.3 0.9v0.5l-0.6-0.1-0.2 1zm0.09-0.2h-0.1v-0.3h0.3v0.3zm0.6-3-0.2 0.2 0.04-1 0.3 0.7zm0.3-1-0.2 0.2v-0.7l0.4 0.4zm0.4-1-0.4 0.3 0.05-0.7 0.4-1 0.3 1zm0.4-2-0.2 0.2v-0.7l0.4 0.4zm0.3-0.8-0.2 0.2v-0.7l0.4 0.4zm0.3-0.9-0.1 0.3v-1l0.3 0.7zm0.7-2h-0.2l0.2-2h0.2v2zm-27 12h0.2l0.3-0.9-0.8 0.7v0.2zm1-0.3h0.2v-0.5h-0.8l0.3 0.5zm6-0.3 0.7-0.09-0.1-0.5-0.7 0.2 0.3-0.6h-0.3l-0.6 1zm2-0.7h0.3l0.3-2-0.04-1-0.8 2-0.2 0.9zm1-0.3h0.1v-0.3h-0.3v0.3zm-2-0.3h0.1l0.3-0.8-0.5 0.3v0.5zm2-0.6 0.2-0.2-0.4-0.4v0.7zm-1-0.7 0.2-0.4 8e-3 -0.7h-0.5v1zm2-2 0.4-1 0.7-0.8 0.9-3 0.2-2 1-3 0.5 0.3-0.4-1-0.6-0.4-0.4-8e-3v2l-0.8 2-0.4 3-0.4-1 0.4-0.5 0.6-3 0.3-1-1-1-0.6 4-0.7 2 0.02 2-0.5-0.3-0.6 1v2h-0.5v0.8h-0.5v1h0.8l0.05-0.9 0.5 2 0.3 0.8zm-0.8-1-0.2 0.2 0.04-1 0.3 0.7zm2-3-0.2 0.2 0.04-1 0.3 0.7zm-1-0.3-0.2 0.2 0.04-1 0.3 0.7zm18-2 0.2-0.2-0.3-0.7-0.04 1zm0.1-1h0.3v-1h-0.5v1zm-0.6-0.9 0.2-0.2-0.4-0.4v0.7zm43-0.7h0.4l-0.4-0.4-0.4 0.4zm0.7-0.3h0.1v-0.3h-0.3v0.3zm0.8-0.6 0.4-0.3-1-0.6 0.7-0.02-0.3-0.3-1 0.3v0.8l1-0.3-0.07 0.4 0.06 0.4zm1 0.06h0.4l-0.4-0.4-0.4 0.4zm0.8-0.3h0.4l-0.4-0.4-0.4 0.4zm-26-0.3h0.2l0.8-0.3v-0.5l-0.7 0.3-0.3-1h-0.5l0.7-0.7 0.4 0.2-0.3 0.4 1 0.3-0.3 1h0.6l-0.3-0.5h0.9l-0.4-0.6 1 0.4-0.7-0.8 0.8-0.5 0.3-8e-3 -0.1 1h0.5l0.3-0.5-0.7-0.3 0.9-0.04v-0.8l0.4 0.06 0.7-0.06v-0.5h-1l-0.7 0.7 0.6-0.8-0.2-0.2 0.7-0.7v0.8h0.7l1-0.7-1-0.5-2 0.04v-0.3l0.8-0.3 0.3 0.5 0.8-0.3v-1h1v-1l-0.8-0.3-0.4 0.3-0.3-0.5h2l-0.3-2-0.05-2-0.4 1-1-0.1v1h-0.8v-0.5h-0.5l-0.2 1-0.07-1-0.8-0.3-0.4 0.3-0.3-0.9-0.3 0.3-0.7-0.6-0.9 0.7 0.3-1 0.4-1-0.7 0.3 0.1 0.8-0.8 0.7v-1l-0.8 0.1-0.4 0.5-0.9-8e-3v-0.5l-0.8-0.8v2h0.6l-0.4 1-0.5 0.5 0.3-1h-0.5l-8e-3 0.7-0.5-0.8 0.8-0.6-0.4-1-0.5 0.7-0.5-0.8-8e-3 0.4 0.5 1h-0.5l-0.2-0.7-0.6 0.6 0.6 2 2 3 0.5-0.3v1l0.5-0.3-0.3-0.5h0.5l0.3 0.5h-0.5l-0.6 1 0.7 1h-0.2l-1 0.3 0.6-0.7-0.8-1 0.6-0.3-0.9-1-0.3-0.3-0.6-1h-0.5v0.3l1 3 0.4-0.2 0.1 1-2 0.1 0.3-1h-0.3l-0.5 0.5-0.8-0.3-0.3-1h0.5v0.5l1-0.1-0.5-0.9-0.5-1 0.5 0.3v0.8h0.4l0.7 2 0.2-0.7-2-3v-0.4l0.8 1 0.02-0.9-0.8-2-8e-3 1-1 0.6-0.9-0.2-1 0.5 1 0.1 0.8-0.08-0.7 0.5-0.7-0.3v0.6l0.8 0.3v0.7h-0.6l0.3-0.5-1-0.4-0.5 0.7-8e-3 -1 0.9-0.7-3 0.05-0.3 0.4-0.8-0.3-2 0.6-0.6-0.4-2-0.1v0.3l1 1v-0.6l1 0.2 0.2 1 1-0.3-0.7 0.3 0.3 0.5 1-8e-3 -0.7-0.5 2-0.7v-0.4h0.4l-0.2 2 2 0.06-0.9 0.2v0.4h2v-0.8l-0.6-0.6h0.9l-0.06 0.4 0.06 1h1l-0.3-2 0.6 1h0.5l-0.3 0.5 0.7 3h0.5l0.7 0.9 0.02-0.6-0.5-0.3 0.2-1-0.5-0.3v-1l1 0.3 8e-3 0.9 0.3 1-0.6-0.4 0.3 0.8h0.2l0.8-0.3v-1l1 0.3-0.9 0.2 0.3 1 0.3 0.8 0.4-1 0.04 1h1v0.5h0.5v-0.8l-1-0.6 0.07-1 0.2 1 2 0.06-1 0.2 0.2 0.9 0.9 6e-3 0.4 0.4zm-0.7-0.8h-0.1v-0.3h0.3v0.3zm3-0.5h-0.2l-0.3-0.5h0.8v0.5zm-4-0.5h-0.3l0.3-0.5h0.2v0.5zm2-0.8-1 1 0.3-0.9-0.9-0.8-0.8-8e-3 0.6-0.4-0.5-0.8-8e-3 -0.3h1l-0.6 0.8 0.9-0.3-0.3 0.7 0.6 1 2-1v0.4zm1 0.6h-0.1v-0.3h0.3v0.3zm1-4e-3 -0.06-4e-3 -0.8-0.5 0.8-0.5 0.7-8e-3 -0.2-0.7-0.6 0.1v-0.8l1 1-0.5 0.7h-0.8l0.3 0.8zm-9-0.5h-0.1v-0.3h0.3v0.3zm5-0.3h-0.1v-0.3h0.3v0.3zm2-2-0.5 0.4-0.3-0.6h0.8l0.2-0.6 0.6 0.4-0.04 0.6-0.3-0.7zm3-0.2-0.3 0.3-0.7-1 0.6-2-0.3 2 1 0.8zm-3-0.7h-0.1v-0.3h0.3v0.3zm1 0h-0.2v-0.7l-1-0.7v-0.4h0.5l0.3 0.6 0.7-0.3v0.7l0.6 0.2-0.4 0.6zm4-0.4-0.4 0.2v-0.5l0.8-0.3v0.5zm-6-0.1h-0.3l-0.3-0.5h0.5l0.3 0.5zm5-0.1-0.5 0.2 0.7-0.7 0.3 0.3zm-13-0.2-0.2 0.2 0.04-1 0.3 0.7zm-3-0.2h-0.1l0.2-2h-2l0.2-0.2 2-0.3-0.3 0.5 1 8e-3 -0.8 0.6 0.7 0.3-0.8 0.8zm15 0h-0.1v-0.3h0.3v0.3zm-13-0.4-0.2 0.2v-1l0.8 0.3-0.4 0.3zm3-0.03-0.4 0.1-0.6-2v-0.6h1v0.7l-0.7 0.3 0.9 0.6v0.4zm11-0.3-0.2 0.4-8e-3 -0.9-0.9-0.2 1-0.06 0.3 0.4zm-20-0.04-1 0.03-0.3-0.8h0.7l0.5 0.5 1 0.3zm14 0.03h-0.09l-0.3-0.8 0.8 0.3-0.3 0.5zm-2-0.5h-0.3l0.2-0.6 0.6-0.2-0.3 0.8zm1-0.3h-0.1v-0.5h0.6l-0.3 0.5zm2-0.3-0.5 0.5 0.6-1 0.3 0.3zm1 0.3h-0.3l0.3-0.5h0.2v0.5zm2-0.4-0.4 0.2v-0.5h0.8v0.2zm4-0.1h-0.4l0.4-0.4 0.4 0.4zm-10-0.3h-0.1v-0.3h0.3v0.3zm1 0h-0.3l0.7-1h0.4l0.2-0.9 0.06 1h0.8v0.8h-0.8v-0.8h-0.5l-0.3 0.8zm4-0.3h-0.1v-0.3h0.3v0.3zm-0.9-0.5h-0.4l0.4-0.4 0.4 0.4zm-1-0.5h-0.1l0.3-0.5h0.3l-0.3 0.5zm26 10 0.3 0.03 0.8-0.6-1 0.3-0.2-0.4 0.7-0.6 0.2 0.5 1-0.3-0.3-0.7 0.9-0.2-1-0.7v-1h-0.6l0.3-0.3 0.7 0.6 0.9-0.3v-0.5l-0.8 0.3-0.3-0.5 1-0.2-1-0.07v0.5l-1-0.06-1 0.1-0.5 1-0.3 2h1l0.3-0.7 0.04 1 0.9 0.2zm-2-2-0.5 0.3v-0.5l1-0.3v0.2zm2 0.04-0.4 0.3 0.3-0.9-0.9 0.3v-1l0.5 0.3-0.3 0.5 1 0.2 0.2 0.8-0.4-0.4zm-2-0.8h-0.4l0.4-0.4 0.4 0.4zm-42 1 0.3-1-0.5-2 8e-3 4zm57 0.6h0.4v-0.8h-0.7v-0.6l-0.5 0.3v-0.6h-0.8v0.3l0.8 0.8h0.6v0.5zm-59-0.5h0.3v-1h0.5l0.06 0.7 0.4-2 0.2-0.5-0.4-0.3-1 3v0.4zm60 0h0.3v-0.8h-0.5v0.8zm-73-0.3h0.2l-0.3-3h0.5l0.5-1-0.4-0.6-0.4 1-0.04-1-1 0.2 0.2 1-0.4 0.3 0.2 3h1l0.2-0.9 0.06 1zm72-0.8h0.8l-0.4-0.7 0.8 0.7 0.3-0.5-0.8-0.8v-0.6l1 1 1-0.04-1-0.5 0.8-0.06-2-1-0.5 0.3 0.4-0.7 2 0.3 0.6-1-0.7-8e-3 0.8-0.5-2-0.2-1 0.3-0.4 1 0.1 0.9-1 0.3v2zm-0.4-0.6-0.2 0.2v-0.7l0.4 0.4zm0.6-0.4h-0.3v-0.5h0.5v0.5zm2-2-0.5-0.02 0.7-0.3 0.3 0.3zm-48 3h0.1l-0.2-1-1-0.7-1 0.04 0.9 0.2-0.4 0.6 1-0.3 0.8 1zm37 0h0.3v-0.8h0.2l0.9-0.3-0.2 0.5 0.3 0.04 1 0.6v-0.9l0.8 0.3 0.6-0.7-0.3-0.3h0.9v-0.5l-0.8 0.3v-0.5l0.6-0.6-0.4-1h-0.8v0.5l-2-0.1-0.7 0.2-8e-3 1-0.5-0.8 0.3-0.4h-0.7l-0.7 1 0.5 0.5-0.3 0.7 0.3 0.8zm2-1-0.1 0.4-0.1-0.5 0.08-0.5-1 0.3 1-0.6 0.6 0.6zm0.4-0.8h-0.2l-1-1 1 0.6 0.3 0.5zm0.7-0.3h-0.2l0.3-0.8 0.5 0.3-0.3 0.5zm9 2h0.1v-0.3h-0.3v0.3zm3-0.5h0.3l1-1v1l0.8-0.3 0.06-1 0.2 0.9h0.8v-0.5l-0.7-8e-3 0.7-0.5-0.4-0.6h0.4v-1l-3-0.1-0.7-0.4v0.6l-0.8 0.8v2h0.5v-1l1 0.6-0.2 0.9h-0.7l-0.2 0.7zm2-2-0.09 0.5-0.4-1 0.02-0.9 0.5 0.9zm-77 0.9h0.1v-0.3h-0.3v0.3zm68-0.8 0.4-0.7-0.2-0.4-1 0.3v0.5l0.5-0.3 0.02 1zm0.5 0.4 0.4-0.2-0.3-0.5-0.5 0.3v0.5zm-41-0.1h0.5v-0.5h-1v0.5zm11 0h0.5l0.5-2 0.6 0.1v-0.7l-0.7-0.3-0.3 0.3v1l-1-0.3v1zm1-0.3h0.1l0.3-1-0.5 0.3v0.8zm17 0h0.4v-0.5h-0.8v0.5zm-38-0.3h0.08v-2h-0.8v1l0.6 0.6zm-1-0.4h0.4v-0.4h-0.8v0.4zm8 0.09h0.4l-0.4-0.4-0.4 0.4zm42-0.3 0.3-8e-3 2-2-0.06-0.3-0.4-1 0.6 0.8 0.07-0.5-0.04-0.3 2-2-0.9 2-0.4-0.2v1l0.4-0.3 1-2-0.2-0.7h0.9l-0.3-0.8 2-3 0.3 0.3 0.8-0.7-0.4 0.8 1-2-0.3-0.8 0.4 0.4 1-2v-0.2l-0.9 0.7 1-1 0.3 0.5 0.4-1-0.6-0.2 2-3 0.3-0.3 0.6-1-2-0.6h-0.1l-0.7 2h-0.5v0.7l-3 4 0.3 0.7h-0.9l-0.3 0.9-2 3-0.09 0.6-2 2 0.7-0.9h-0.5l-1 2-0.5-0.3-0.02 0.7-2 2 0.6 0.2 0.9-0.7-1 1h-0.7v0.5l1 0.1 1-1-0.2 1-0.5 0.4 0.4-0.7-0.6 0.4 0.3 0.5zm1-2h-0.1l0.3-0.5h0.3l-0.3 0.5zm2-4h-0.08v-0.4l1-1-1 2zm2-2-0.4 0.4-0.3-0.8 0.7-0.6 0.4 0.6zm-0.4-0.2h0.1l0.3-0.5h-0.3l-0.3 0.5zm2-2-0.4 0.05 0.3-0.8 0.2 0.6 0.6-0.4-0.4 0.5zm0.9-2-0.5 0.5 0.02-0.5 1-2-0.3 1zm-1-0.7h-0.1l0.6-1h0.3l-0.6 1zm2-1h-0.1v-0.3h0.3v0.3zm-8 14 0.3-0.3-0.3-0.3-0.4 0.9zm12-0.3 0.7-0.1v-0.5l-1 0.2-0.2 0.6zm-8-0.5 0.2-0.1-0.7-0.4-0.5 0.3 0.7 0.4zm-75-0.08h0.3l7e-3 -1 0.3-1-2-0.8-0.3 0.5 0.4 1 0.5-0.7-0.2 1h0.5v0.8zm-0.1-2h-0.1v-0.3h0.3v0.3zm42 2h0.1v-0.3h-0.3v0.3zm44 0h0.1l0.3-0.8h-1v0.5l0.8-0.3v0.6zm-12-0.7 0.3-0.2 4-0.5 4 0.09 15-17 0.01-0.3-4 3-5 2-6 1-8 11-6e-3 0.7zm-32-0.09h0.3v-0.8h-0.5v0.8zm43-0.3h0.2l2-1-0.3-0.7 0.8-0.3-0.2 1 0.6-0.4 0.5-8e-3 0.2-1-2 0.6-0.8-0.8-0.6 8e-3 0.6 0.4 0.4 1-0.6 0.4-0.4-0.6-0.8 0.5 0.7 8e-3 -0.3 1zm3-2h-0.1v-0.3h0.3v0.3zm-45 0.3h0.3v-0.5h-0.5v0.5zm-26-0.6 0.4-0.4v-0.6l-0.5 0.3v-0.8h-1v0.5l0.9 8e-3 -0.8 0.5 0.7 8e-3v0.8zm22 0.3 0.2-0.2-0.3-0.7-0.04 1zm-23-0.2h0.3l-0.5-0.7-0.3-1-0.06 1 0.4 0.4zm9-0.1 2-1 0.2-0.7-3 2-3e-4 0.2-3e-4 0.2zm14 0.1 0.2 0.01-0.3-1 1 0.3v-1h-0.2l-0.8-0.3v0.8l-0.5 0.3 0.3-1-0.9-0.4-0.3 0.3 0.6 0.6v0.5l-0.6-0.6h-0.4v0.8l2 0.7zm-37-0.6 0.1-0.5-0.2-1-0.01 2zm40-9e-3 0.3-0.5 0.6 0.4-0.7-0.7-0.5 0.8 8e-3 0.5zm-41 0.07h0.3v-2l-0.5 0.3v2zm14 0h0.1v-0.3h-0.3v0.3zm4-0.07 0.3-0.1 0.1-0.9-0.5 0.3v-0.5l0.8-0.3-0.3-0.5h0.6l-0.3 1 0.4 0.6 0.9-0.3 0.07-1 0.2 1h1l-0.3-0.4 2-1v-0.4l0.9 8e-3 -0.8 0.5 0.9 8e-3v-0.5l-0.8-0.8 0.6-0.4 0.9 1 0.7-0.8h-0.4l0.9-1-1-0.6 0.3 0.5-0.5 0.9-0.02-1-1 0.9-1-0.8-0.8-1h0.6l0.8 0.8h-0.3l1 1 1-1 0.9-0.07 0.7-0.4 0.6 0.7-0.6-0.4-0.3 0.5 0.9-0.06 1-1-0.3-0.8 0.6-0.3v0.6l1-0.6-0.3-0.4-0.6 0.4 0.7-0.9-0.6-1 1 1 0.4-0.3-0.1-2h0.7l0.3 0.8 0.5-0.3v-1l-0.7 0.4 0.7-0.8-0.3-0.9h0.6l0.07 0.9 0.3-2-0.3-0.3 1-2v0.9l-0.5 0.3v0.6l0.8-0.7v-0.7l0.9-2 0.08-0.8 0.1-2 0.3 0.7 0.7-2-0.2 2-0.9 2h0.5l0.3-2 0.3 0.3 0.09 2-0.5-0.1-0.7 2 0.5-0.3v0.5l-1 1v0.5l0.8-1 0.02 0.4-0.6 1 1-0.4v0.6l0.5-0.3-0.02 0.4-1 1 0.4-0.6h-0.6l-0.5-1 0.2 1-0.3 4e-4 -0.08 1 0.9-0.6-1 1v0.3l1-0.6 0.02 0.4 0.5-0.9 0.6 8e-3 -0.8 0.5 0.9 8e-3 0.7-0.7 1 0.2 0.4-0.6-1 0.4 0.3-0.9 2-1 0.4 0.02-1 0.7-0.2 1 0.7-0.2-0.07-0.9 1 8e-3 -0.8 0.5 2 0.09-2 0.2v0.5l0.8-0.3 2 2v0.7l-0.8-1-0.4 0.4 0.8 0.5-1 8e-3 0.8 0.8 1 0.09v0.5l0.9-0.2 1 1 1-0.4-0.3 0.5 1 0.6-0.3-0.5 0.7 7e-4 0.06 2-0.7-0.3 0.3-0.7h-0.6l-0.4 1 0.4 0.4 2 0.3 0.3-0.5-0.7-0.04 0.6-0.3-0.6-0.7-0.6 0.2 0.08-1h0.5l-0.3 0.8 0.8-0.3v-0.3l-0.9-1 1 8e-3 -0.7 0.5 1 0.6 0.3-0.7 0.04 0.9h-0.9l2 2 2 0.3-0.3-1 0.5 0.8 5-0.8 0.7-0.7 0.5 0.3 3-0.8 0.5-0.5-2-8e-3 0.8-0.5-1-1 0.5-0.3 1 1 0.3-0.3 1 0.7 2-1-1-1 0.4-0.4 0.5 0.9 1 0.5 0.8-0.8 0.7-0.1 0.8-0.7 1 0.3v-0.8l-0.5 0.3-0.6-1-0.4 0.06-0.7-0.06v-0.9l-0.8 0.7-0.7-0.3-1 0.7 0.6 0.02 0.8-0.7-1 1-0.7-0.3-0.3 0.8h-0.5l0.6-0.8-0.3-0.5 0.9-0.7-0.4 0.7h0.5l1-1-0.7 0.6-0.7-0.3-0.9 0.7 0.4-0.7 0.1-1-1 0.5 0.3 0.5-1 0.9-0.3-0.3 0.6-0.8 0.6 0.1-0.4-0.2 0.3-0.6-0.6 0.4-0.6-0.3 0.6-0.7-0.7-1-0.9 1-0.8-1 0.5-0.9v-1l-0.8 0.3v-0.6h0.5l-0.3-0.8-0.5 0.3 0.3-1-0.8-1-0.6 0.8 0.3-0.9h-0.5l0.3-0.6 0.7 0.3-0.6-2-1-0.5 0.6-0.03-2-3h-0.4l-0.6-2-1 0.3 0.7-0.8-0.7-0.2v-1l-1 0.3v-0.2l1-0.9-0.4 0.7 0.6-0.4v-0.8h-0.6l0.3-0.6-0.3-1-1 0.5 0.2-1 0.5-0.3-0.4-0.6-0.7 0.6-0.7-0.3 1-0.6-0.3-0.9-2 2 0.3 0.5h-0.6l0.3 0.5-0.5 0.3 0.2-2-1 0.3 0.6 2h-0.6l0.3 0.4h-0.8l0.9-1h-0.5l-0.6 0.6-1 0.2 0.7-0.5-1-0.3-0.9 0.9-2 1h-0.4l-2 2-0.3-0.3-1 1 0.3-0.9-0.8 0.3 0.2 0.4-1 1 1-1-0.9-0.7-2 0.9-0.9-0.5-0.4 0.4-0.3-1-0.5 0.3 0.3-0.8h-0.5l-0.3 0.8h-0.6l-0.6-1h-0.7l-0.6 1h-0.9l1-0.8-2 0.4 0.7-0.9h-0.6l-0.9 0.9-0.2-0.7h-0.5v0.8h-1l0.3-0.5-0.4 8e-3 -0.7 0.5 2 0.4-1 0.7h-0.3l1-0.8-0.6-0.02-1 0.6-0.5-0.1-0.9 0.7-2 1-2 2 0.1 0.5-1-0.2-4 4-2 4-0.8 2 0.7-0.4-0.7 0.9 0.6 0.7-0.9-0.08-0.7 3-0.4-0.1-1 0.4-0.1 1-0.1 1-0.1 0.5 0.06 0.4h-1l0.3-0.8h-0.6v2l-0.5-0.3-0.4-1-0.6-0.4-0.9-8e-3 0.09 0.7-0.06 0.6-1 0.3v-0.5l0.5-1h-1l-0.3 0.8h-0.5l0.6-1-1-0.5 1-0.05-0.8-0.5-1-8e-3 0.2 0.4-3 0.03-0.2 0.2-0.4 2 0.9-0.3-0.09 0.9 0.06 0.4 1-0.6-0.4 0.9 1-0.3 0.3 0.7h3v0.6l-3-0.3 0.7 0.4 2 8e-3 -0.3 0.5h0.8v0.5l0.9 8e-3 -0.7 0.5 1 0.6 0.3-0.3v0.6l0.5-0.3 1 1 0.4-0.6-0.6-1-1-0.3 0.6-0.4-0.3-0.9h0.6v1h0.8v0.8h0.5l-0.3 1 0.5-8e-3 0.8-0.5-1-0.04 1-0.5 0.8 0.3v0.4l-0.9 0.2 1 0.4 0.5-0.7 8e-3 -0.7-0.9-0.06 0.9-0.2 0.8 0.8-0.4 0.4 0.9-0.4 0.9 0.7-0.3-1 2-0.5-0.07-0.4 0.07-2 0.5 0.8-0.3 0.4-0.02 3 0.4 1zm1-2-0.2 0.2v-0.7l0.4 0.4zm-5-0.6-0.3 0.5-0.9-2v-0.9l0.8 0.7-0.3 0.4 0.3 0.8 0.8 0.2zm7 0.1-0.2 0.3-0.7-0.4 0.9-0.4 0.2 0.2zm-9-0.2h-0.4l8e-3 -0.4 0.4-0.7 0.3 1zm1 0h-0.1v-0.3h0.3v0.3zm5 0h-0.3v-0.8h0.2l0.3 0.8zm-3-0.4-0.2 0.2v-0.7l0.4 0.4zm4 0.09h-0.7l0.06-1 0.4-2-0.3 3 1-0.3v0.5zm3-0.2-0.1 0.3-0.4-0.7 0.3-0.3 0.3 0.3zm-11-0.04h-0.3l0.06-0.4-0.07-0.5-0.5 0.8-8e-3 -0.9h0.8v0.2l0.3 0.8zm-3-0.3-0.2-4e-3 -0.8-0.5 0.9-8e-3 0.3 0.5zm17 4e-3h-0.1v-0.3h0.3v0.3zm-10-0.3h-0.1v-0.3h0.3v0.3zm6-0.3h-0.6l0.4-0.6-0.7-0.5 0.9-8e-3v0.6l0.7-0.3v0.7zm-7-0.3h-0.1v-0.3h0.3v0.3zm36-0.1-0.1 0.1-0.4-0.4v-0.5l0.6 0.6zm0.7-0.1h-0.1v-0.3h0.3v0.3zm2-8e-3 -0.3 8e-3 -0.6-0.6v-0.4l0.9 8e-3 -0.7 0.5 1 0.6zm2 8e-3h-0.1v-0.3h0.3v0.3zm-48-0.3h-0.1v-0.3h0.3v0.3zm5 0h-0.1v-0.3h0.3v0.3zm0.5 0h-0.1v-0.3h0.3v0.3zm3 0h-0.1v-0.9l-2 0.2v-0.4h2v1zm-6-0.5-0.3 0.3v-0.6l-1-0.6 2 0.3 0.2 0.2zm9 0.1-0.2 0.2v-0.6l-1-0.06 1-0.3 0.6 0.6zm5-0.08-0.4 0.2v-0.2l0.8-0.7v0.5zm26 0.2h-0.1v-0.3h0.3v0.3zm2-0.2-0.3 0.2-0.5-0.9-0.8 0.7v-0.5l0.8-0.3 1 0.7zm-44-0.3-0.1 0.3v-1l0.3 0.7zm47 0.2h-0.1l-0.3-0.5h0.6v0.5zm-48-0.3h-0.4l0.4-0.4 0.4 0.4zm4 0h-0.4l0.4-0.4 0.4 0.4zm2-0.2-0.4 0.1-0.7-0.5 0.3-0.08 1-0.1v0.4zm-8-0.08h-0.4l8e-3 -0.9 0.4 0.5 0.5 0.4zm1-0.04h-0.7l0.7-0.3 0.7 0.3zm22 0.04h-0.2v-0.5l0.8-0.3-0.3 0.8zm25-0.02-0.4 0.02-0.3-0.4 2-0.05-1 0.4zm5 0.02h-0.1v-0.3h0.3v0.3zm2 0h-0.1v-0.3h0.3v0.3zm-46-0.3-0.5-0.02 0.7-0.3 0.3 0.3zm4 0.02h-0.1v-0.3h0.3v0.3zm8 0h-0.1v-0.2l0.9-0.7-0.7 0.9zm25-0.2-0.3 0.1-1-0.7 2 0.1 2e-3 0.3zm6 0.2h-0.3l-0.3-0.5h0.5l0.3 0.5zm0.8 0h-0.2l-0.3-0.8 0.8 0.3v0.5zm-41-0.3h-0.1v-0.3h0.3v0.3zm3 0h-0.3l0.7-0.8 0.2 0.2-0.3 0.6zm40-4e-3 -0.08-4e-3 -0.8-0.5 0.6-8e-3 0.3 0.5zm2-0.1-0.3 0.2v-0.6l-0.7 0.4 0.7-0.9-2 0.3 2-0.7-2-1 0.8-0.06-1-0.5 2 0.2 2-0.8h0.1v0.8l-0.4-0.2-2 0.6v0.4l1-0.3-0.8 0.6 0.7 8e-3 -0.2 0.7 0.5 0.9zm-55-0.1h-0.4l0.4-0.4 0.4 0.4zm7 0h-0.1v-0.3h0.3v0.3zm0.5-0.3-0.09 0.4-0.06-1 0.1-0.2-1-1 1 0.4-0.3-0.8 0.6-0.2-0.2 2zm3 0.3h-0.1v-0.3h0.3v0.3zm4 0h-0.3v-0.5h0.5v0.5zm3-2e-3 -0.3-2e-3 -0.6-1h0.1l1 1v0.3zm28 2e-3h-0.2l-0.9-2 1 0.06-0.9 0.2v0.3l0.9 1zm1-0.3-0.09 0.2-1-0.4 1-0.04 0.7-0.8h1l0.8-0.3v-0.8l0.3 0.3-0.3 1h-1v0.5h-1zm-50 0.04h-0.1v-0.8h1l-0.8 0.8zm10-0.02-0.5-0.02 0.7-0.3 0.3 0.3zm3 0.02h-0.1v-0.3h0.3v0.3zm2 0h-0.1v-0.3h0.3v0.3zm8 0h-0.3v-0.6l-0.6 0.4 0.4-0.6 0.7 0.6v0.2zm17 0h-0.1v-0.5l0.5-0.3-0.3 0.8zm3 0h-0.1v-0.3h0.3v0.3zm-29-0.3h-0.3l1-0.9-0.7 0.9zm28-0.02-0.6-0.02 0.7-0.3-0.6-0.7h0.8l0.3 1zm4 0.02h-0.1v-0.3h0.3v0.3zm8 0h-0.1l-0.7-0.8 0.9 0.3v0.5zm-55-0.4-0.2 0.2v-0.7l0.4 0.4zm12 0.09h-0.4l0.4-0.4 0.4 0.4zm5 0h-0.2v-0.4h0.8l-0.3 0.4zm5-0.09-0.2 0.2v-0.7l0.4 0.4zm25 0.09h-0.4l0.4-0.4 0.4 0.4zm7 0h-0.1l-0.4-0.6 0.6 0.4v0.2zm-55-0.4-0.2 0.2v-0.7l0.4 0.4zm12 0.09h-0.1v-0.3h0.3v0.3zm34-0.2-0.7 0.1-0.3-0.5h2v0.2zm-45-0.07h-0.3l0.3-0.5h0.2v0.5zm24 0h-0.1v-0.3h0.3v0.3zm16-0.2-0.3 0.2-0.6-2h-0.4l-0.6-2h0.7l-0.3 0.7 0.8 0.8v0.8l0.9 0.3 0.2-0.6 0.5 0.3v0.5l-1 8e-3 0.7 0.5zm1 0.2h-0.1v-0.3h0.3v0.3zm0.8 0h-0.1v-0.3h0.3v0.3zm14 0h-0.4l0.4-0.4 0.4 0.4zm4 0h-0.1v-0.3h0.3v0.3zm-42-0.4-0.4 0.2 0.3-0.5-0.6-0.3-0.8 0.7-0.2-0.2 2-2v-0.7h0.8l-2 2 0.9 0.2v0.4zm2-0.3-0.7 0.5 1-1-0.7-0.8 0.3-0.7 0.4 1h0.5l-0.02 0.4zm6 0.2-0.4 0.3 0.3-0.8 1 0.07-0.3 0.8-0.2-0.7zm22 0.2h-0.4l0.4-0.4 0.4 0.4zm-34-0.3h-0.1v-0.3h0.3v0.3zm9 0h-0.1l0.3-0.5h0.3l-0.3 0.5zm33 0h-0.1v-0.3h0.3v0.3zm5 0h-0.1v-0.3h0.3v0.3zm-39-0.3h-0.1v-0.3h0.3v0.3zm4-0.1-0.3 0.2-0.3-0.5 0.5-0.3 0.3 0.5zm17 0.1h-0.4l0.4-0.4 0.4 0.4zm1 0h-0.2l-0.7-1h-2l-0.3 0.7-0.03-0.8 0.5-0.8 8e-3 0.7 3 8e-3 -0.8 0.5 0.7 0.8zm7-0.09-0.2 0.2v-0.7l0.4 0.4zm2 0.09h-0.1v-0.3h0.3v0.3zm3 0h-0.1v-0.3h0.3v0.3zm6-0.2-0.7 0.1-0.07-0.9 1-1-1 1 1-0.3-0.3 0.5 0.7 0.2zm-48-0.04h-0.1v-0.3h0.3v0.3zm5 0h-0.1v-0.3h0.3v0.3zm25 0h-0.1v-0.3h0.3v0.3zm10 0h-0.4l0.4-0.4 0.4 0.4zm1 0h-0.4l0.4-0.4 0.4 0.4zm-32-0.3h-0.3l-0.7-0.8h0.4l0.8 0.8zm25 0h-0.4l0.4-0.4 0.4 0.4zm4 0h-0.4l0.4-0.4 0.4 0.4zm12-0.1h-0.5v-0.09l0.7-0.6 0.3 0.7zm-10-0.2-0.5-0.02 0.7-0.3 0.3 0.3zm-42-0.2h-0.1v-0.3h0.3v0.3zm1-0.3-0.5 0.3v-0.3l1-0.6v0.3zm11-0.4-1 0.8 2-2h0.4l-0.02 0.4zm20 0.6-1-0.06 0.3-0.3 2-0.01v0.4zm3 0.08h-0.1v-0.3h0.3v0.3zm2 0h-0.1v-0.5h0.6l-0.3 0.5zm3-0.2-0.4 0.1-0.3-0.7 1 0.3v0.1zm2 0.06-0.7 0.07v-0.8l0.7 0.4 1-0.2-0.4 0.4zm2 0.1h-0.1v-0.3h0.3v0.3zm-31-0.3h-0.1v-0.3h0.3v0.3zm23 0h-0.1v-0.3h0.3v0.3zm-37-0.5-0.3 0.4 0.03-0.5 0.5-1 0.03 0.8zm9 0.2-0.08 0.1v-0.5l3-3-3 3zm4 0.02h-0.3l1-1 0.3 0.3-1 1zm22 0h-0.3v-0.8l-0.9-0.5 0.5-0.3 0.5 0.7 0.3 0.9zm4-4e-3 -0.2 4e-3v-0.7l1 0.3-0.7 0.4zm-24-0.4-0.5 0.1 0.8-1h0.09v1zm15 0.1-1-5e-3 1-0.2 0.9 0.2zm6 0.07h-0.3l1-0.7-0.3-0.6 1 0.6-1 0.7zm7 0h-0.1v-0.3h0.3v0.3zm3-0.2-0.3 0.3 0.4-1-0.6 0.4v-0.7l-0.6 0.6-0.6-8e-3 0.8-0.6-0.6-0.3 0.3-0.7-0.8-0.3v-0.5l1-0.7-0.2-0.2 2-2h0.2v0.2l-2 2-8e-3 0.3-1 0.4 2 0.7-0.7 0.02 0.3 0.5h2l0.3 0.5 1-0.3-0.8 0.9-1-0.3zm-43-0.08h-0.1l0.3-0.5h0.3l-0.3 0.5zm4-0.9-1 1-2e-3 -0.6-1e-3 -0.6h0.6l1-1 0.1 0.2zm3 0.8-0.4 0.2v-0.5l0.5-0.3 0.3 0.5zm12 0.2h-0.4l0.4-0.4 0.4 0.4zm7 0h-0.4l0.4-0.4 0.4 0.4zm13 0h-0.1l-0.9-1-2 0.4-0.3-0.9-0.3-0.7h0.5l0.3 1 1-0.3 1 1zm7 0h-0.1v-0.3h0.3v0.3zm-18-0.4-0.2 0.1-0.3-1-2-0.05 2-0.4 4e-3 0.09 0.7 1zm4 0.1h-0.1v-0.3h0.3v0.3zm-17-0.3h-0.1v-0.3h0.3v0.3zm27 0h-0.1v-0.3h0.3v0.3zm-42-0.3h-0.1v-0.3h0.3v0.3zm24-0.2-0.7 0.1v-0.6h1v0.3zm5 0.2h-0.1v-0.3h0.3v0.3zm-30-0.3h-0.1l0.3-0.5h0.3l-0.3 0.5zm2 0h-0.1v-0.3h0.3v0.3zm5 0h-0.1v-0.5h0.6l-0.3 0.5zm2-0.3-0.5 0.3 0.2-0.9 1-0.6-0.6 0.9zm4 0.3h-0.1v-0.3h0.3v0.3zm28 0h-0.1v-0.3h0.3v0.3zm5-0.02-0.3-0.02 0.7-0.3v-0.5l-0.5 0.3v-0.6h0.5v-0.8h0.5l-0.5 1 0.6 0.4-0.7 0.5zm-42-1-1 0.9 2-2-0.3-0.5h1l-0.01 0.3zm10 0.8h-0.1l0.6-0.8-0.4-0.6 1-1h0.5l-1 1v0.5l0.9-0.4-1 1zm17 0h-0.4l0.4-0.4 0.4 0.4zm-24-0.3h-0.1v-0.3h0.3v0.3zm6-0.09-0.2 0.2v-0.7l0.4 0.4zm28 0.09h-0.1v-0.3h0.3v0.3zm-41-0.4-0.3 0.2 8e-3 -1 0.5-0.8 8e-3 2zm22 0.1h-0.1v-0.3h0.3v0.3zm2 0h-0.2v-1h0.2l0.3 1zm16 0h-0.4l0.4-0.4 0.4 0.4zm-37-0.3h-0.2v-0.5l0.8-0.3-0.3 0.8zm22 0h-0.1v-0.3h0.3v0.3zm5-8e-3h-0.3l0.8-0.5h0.5l-0.8 0.5zm3 8e-3h-0.1v-0.3h0.3v0.3zm5-0.09-0.2 0.2v-0.7l0.4 0.4zm6 0.09h-0.4l0.4-0.4 0.4 0.4zm-35-0.3h-0.1l0.3-0.5h0.3l-0.3 0.5zm14-0.2-0.4 0.2v-0.2l0.8-0.7v0.5zm4 0.2h-0.4l0.4-0.4 0.4 0.4zm9 0h-0.3v-0.6l0.5 0.3v0.2zm2-0.1-0.09 0.08-1-0.4 0.6-0.04-0.3-0.9 0.9 1zm5-9e-4 -0.5 0.2 0.7-0.7 0.3 0.3zm-16-0.2-0.2 0.2v-0.7l-1 0.3v-0.5h1v-0.3l-0.5-1 0.8-0.3-0.3 0.6 0.7 2zm2 0.08h-0.4l0.4-0.4 0.4 0.4zm-18-0.5-0.5 0.3v-0.3l1-0.6v0.3zm2 0.3h-0.1v-0.3h0.3v0.3zm2 0h-0.1v-0.3h0.3v0.3zm19 0h-0.3v-0.6l0.5 0.3v0.2zm-29-0.3h-0.1l1-1h0.3l-1 1zm4 0h-0.2l2-2h0.3l-2 2zm5 0h-0.1v-0.3h0.3v0.3zm2 0h-0.1v-0.3h0.3v0.3zm6-0.07-0.5-0.04 1-2 3-3 0.3 0.3-4 4-0.02 0.4 0.6-0.4-0.4 0.6zm9 0.07h-0.1v-0.3h0.3v0.3zm6-0.2-0.1 0.3-0.7-1 0.2-0.2 0.7 0.8zm3 0.2h-0.1l-0.3-0.5h0.6v0.5zm4 0h-0.1v-0.5h0.6l-0.3 0.5zm-28-0.3h-0.1l-0.3-0.5h0.6v0.5zm10 0h-0.1v-0.3h0.3v0.3zm3 0h-0.1v-0.3h0.3v0.3zm-25-0.5-0.3 0.3 0.4-0.9 0.3 0.3zm2 0.06-0.3 0.2v-0.5l0.5-0.3v0.5zm9 0.1h-0.3l1-1 0.3 0.3-0.7 0.8zm17-0.3-0.1 0.4-0.4-0.9v-0.1l1-0.09-0.6 0.4zm4 0.3h-0.08l-0.5-0.7-0.4-2 0.7 1 0.3 1zm-26-0.4h-0.4v-0.4h0.8v0.4zm4-0.08-0.4 0.1 0.01-0.4 1-1 0.7 0.3-0.9 0.04-0.3 1zm11 0.2h-0.1v-0.3h0.3v0.3zm1 0h-0.1v-0.5h0.6l-0.3 0.5zm13-0.2-0.1 0.3-0.4-0.7 0.3-0.3 0.3 0.3zm3 0.2h-0.2l0.3-0.8-0.5-1h0.6l-0.3-0.8 0.7 0.3 0.9-1-0.3-0.9-1 0.9-0.2-0.2 1-1 1 2-1 0.6-0.2 1-0.6-0.3 0.2 0.7 0.6 0.2 0.5-1 0.4 1-2 1zm-37-0.3h-0.1v-0.3h0.3v0.3zm13-0.1-0.3 0.2v-0.5l0.5-0.3v0.5zm16 0.1h-0.1v-0.3h0.3v0.3zm12 0h-0.1v-0.3h0.3v0.3zm-38-0.7-0.1 0.6-0.07-0.7-1-3 0.7-0.3 0.6 2 1-0.9v-0.7h0.5v0.6l-1 1zm13 0.04-0.5 0.5-0.4-0.6 0.3-0.3 0.02 0.7 0.8-1 0.3 0.3zm3 0.3-0.2 0.2v-0.7l0.4 0.4zm-14-0.2h-0.3v-1h0.8l-0.08 1zm2-0.2-0.5 0.1 0.01-1-1 0.2 0.4-0.6-0.3-1-0.6 0.4 0.4-0.9v-0.5l0.7 0.3-0.02 1 1-0.08-0.3 0.7 0.8 0.6v0.7zm15 0.2h-0.3l1-1 0.9-0.5-8e-3 1-0.5-0.8-0.8 1zm7-0.09-0.1 0.1-0.4-1 0.2-0.2 0.4 1zm4 0.09h-0.08l-0.3-0.8v-0.5l0.4 4e-4 0.08 1zm-32-0.3h-0.1v-0.3h0.3v0.3zm11 0h-0.1l0.3-0.5h0.3l-0.3 0.5zm2 0h-0.1v-0.3h0.3v0.3zm11-0.3-0.7 0.3v-0.5h0.8l2-1h0.4l-0.3 2-0.5-1-1 0.9v-0.3zm10 0.3h-0.1v-0.3h0.3v0.3zm1-0.09-0.2 0.2v-0.7l0.4 0.4zm5 0.09h-0.1v-0.3h0.3v0.3zm-32-0.3h-0.3v-0.5l-0.9-0.9 0.3-0.3 1 2zm-9-0.3h-0.1v-0.3h0.3v0.3zm34 0h-0.1v-0.3h0.3v0.3zm7 0h-0.1l0.3-0.5h0.3l-0.3 0.5zm-30-0.3h-0.4l0.4-0.4 0.4 0.4zm1 0h-0.1v-0.3h0.3v0.3zm-3-0.3h-0.1v-0.3h0.3v0.3zm3 0h-0.1v-0.3h0.3v0.3zm7-0.3h-0.1v-0.3h0.3v0.3zm4 0h-0.4l0.3-0.5h0.5v0.5zm6-0.07-0.2 0.2 0.04-1 0.3 0.7zm3-0.1-0.1 0.3-0.6-2 0.03-0.7 0.8 2zm3 0.01-0.1 0.3 0.02-2 0.2 0.9zm-20-0.07h-0.1v-0.3h0.3v0.3zm11 0h-0.1v-0.3h0.3v0.3zm8 0h-0.1v-0.3h0.3v0.3zm4 0h-0.1l0.3-0.5h0.3l-0.3 0.5zm2 0h-0.2l0.9-1-0.4-0.4 0.7 0.4-0.6 1zm-33-0.4-0.3 0.1 0.2-1h0.1l0.3 1zm22-0.5-0.1 0.8-0.3-1-0.6 0.1 0.2-2h-0.5l0.2-2h0.4l-0.3 1h0.5l0.8-0.3v-1h-0.6l0.8-0.8 0.2 2e-3 0.03 2-1 0.3v2l0.6 0.2zm-25 0.4h-0.1l0.3-0.7 3-2h0.4v0.5h-0.8l-3 2zm7 0h-0.1v-0.3h0.3v0.3zm2 0h-0.1l0.3-0.5h0.3l-0.3 0.5zm-13-0.3-0.1 0.1v-2l0.4-0.2-0.1 2zm26-0.03-0.2 0.2v-0.7l0.4 0.4zm6 0-0.2 0.2v-0.7l0.4 0.4zm5 0.07-0.5-0.02 0.7-0.3 0.3 0.3zm-25-0.2h-0.09l0.3-0.8h0.5l-0.7 0.8zm8 0h-0.2v-0.5l3-2 0.4-8e-3 -0.6 1-0.4-0.2-2 1zm3-0.09-0.2 0.2v-0.7l0.4 0.4zm14 0.09h-0.3v-0.5h0.5v0.5zm-29-0.3h-0.1v-0.3h0.3v0.3zm11-0.6-0.8 0.6 1-2 0.2 0.2zm14-0.2-0.2 0.7-0.3-2 0.4-0.4 0.2 0.7zm-15-0.06-0.5 0.5 0.7-1 0.3 0.3zm6 0.3h-0.1v-0.3h0.3v0.3zm6-0.3-0.1 0.5v-2l0.2 0.9zm-5-0.01-0.6 0.08 0.8-0.5 0.7-8e-3 -0.4 0.4zm-24-0.3h-0.5l0.6-0.9 0.4 0.3v0.6zm12 0.1h-0.1v-0.3h0.3v0.3zm22 0h-0.1l0.3-0.5h0.3l-0.3 0.5zm-22-0.3h-0.1v-0.3h0.3v0.3zm2-0.6-0.2 0.7-0.4-1 4e-4 -0.5 4e-4 -0.5 0.5 0.8 8e-3 -0.7 0.6 0.3 0.8-0.7 0.3 0.3-0.6 1-0.7-0.3zm9 0.4-0.1 0.3v-1l0.3 0.7zm-16-0.07h-0.3l0.3-0.8h0.2v0.8zm28-0.2-0.4 0.1 0.3-0.8h0.5v0.5zm2 0.2h-0.3v-0.6l0.5 0.3v0.2zm-33-0.6-0.7 0.3v-2l-1 0.3 1-0.8 0.3-0.02-0.2 2 2-0.7-0.5 0.5zm4 0.3h-0.1v-0.3h0.3v0.3zm7 0h-0.1v-0.3h0.3v0.3zm6-0.3-0.9 0.4 0.3-0.6 2-0.8-0.2 0.7zm-19 0.07h-0.4l1-1 0.6 0.04-0.7 0.3v0.7zm16 0h-0.1l0.8-2h0.3l-0.8 2zm15-8e-3 -0.2 8e-3 1-1 0.2 0.2-1 0.8zm-23-0.3h-0.1v-0.3h0.3v0.3zm7-0.5-0.4 0.7v-0.5l0.8-1v0.5zm8 0.5h-0.1v-0.3h0.3v0.3zm-18-0.6-0.4 0.3v-0.5l0.6-0.3 0.2 0.2zm4 0.3h-0.2l0.3-1h0.2v1zm3-0.07-0.2 0.2 0.04-1 0.3 0.7zm23 0.07h-0.1v-0.3h0.3v0.3zm-36-0.3-0.3 0.1 0.6-1 0.5-0.3-0.4 1zm19 0.05h-0.1v-0.3h0.3v0.3zm-11-0.3h-0.1l-0.3-0.5h0.9l-0.3 0.5zm15 0h-0.2l0.3-2 0.3 2-0.2 0.4zm-21-0.5-0.1 0.4-0.04-1 1-0.6-0.9 1zm33 0.08-0.5 0.1v-0.2l2-0.9-0.7 0.8zm-11-0.08h-0.4l0.4-0.4 0.4 0.4zm-9-0.4-0.2 0.2v-0.7l0.4 0.4zm2-0.1-0.3 0.3 0.4-0.9 0.3 0.3zm1 0.1-0.04 0.06 0.04-2 0.4 0.3 0.8-0.7-1 2zm2 0.07h-0.3l0.6-1 0.3 0.3-0.3 0.8zm12-0.2-0.5 0.3v-0.2l2-1-0.8 0.9zm-27-0.4-0.1 0.5v-2l0.2 0.9zm4 0.1-0.1 0.3v-1l0.3 0.7zm3 0.1-0.2 0.2v-0.7l0.4 0.4zm0.5 0.09h-0.1v-0.3h0.3v0.3zm2 0h-0.1v-0.3h0.3v0.3zm-4-0.3h-0.1v-0.3h0.3v0.3zm5-0.3-0.4 0.3v-0.5l0.6-0.3 0.2 0.2zm3 0.3-0.4-8e-3 1-0.8 0.2 0.2-0.3 0.6zm2 8e-3h-0.1v-0.3h0.3v0.3zm4-0.3-1 0.3 0.5-0.4 1-0.6v0.4zm-12 0.06h-0.1v-0.3h0.3v0.3zm0.8-0.2-0.1 0.3v-1l0.3 0.7zm0.5 0.1-0.2 0.2v-0.7l0.4 0.4zm-7-0.2h-0.1v-0.3h0.3v0.3zm24 0h-0.1l1-1h0.3l-1 1zm-28-0.3h-0.1v-0.3h0.3v0.3zm17 0h-0.1v-0.3h0.3v0.3zm9 0h-0.2v-3l0.8-2 0.3 0.3-0.7 2 0.4 0.6-0.4 3zm4-0.02-0.5-0.02 0.7-0.3 0.3 0.3zm-23-0.3-0.5-0.02 0.7-0.3 0.3 0.3zm5-0.2-0.5 0.3 0.4-0.6 1-0.6-0.4 0.6zm9-0.09-0.1 0.5-0.05-0.8 0.4-0.6 0.8 0.5-0.9 8e-3zm-21 0.07h-0.1l0.3-0.5h0.3l-0.3 0.5zm24 0h-0.1l0.3-0.5h0.3l-0.3 0.5zm4-0.09-0.2 0.2v-0.7l0.4 0.4zm-26-0.2h-0.1v-0.3h0.3v0.3zm9 0h-0.3l2e-3 -0.4 1-1-0.3 0.6-0.3 0.9 0.8-0.3-0.3-0.4 2-1 0.3 0.5-1 1-1 0.6zm2-1 0.5-0.3 0.4-0.6-1 0.9v0.2zm1 1h-0.2v-0.2l1-0.9-1 1zm16 0h-0.3v-0.5l0.5-0.3v0.8zm-22-0.3-0.07-0.02-1-0.5 1-0.04v0.5zm11-0.2-0.1 0.3 0.02-2 0.2 0.9zm-9-0.2-0.2 0.2v-0.7l0.4 0.4zm11-0.2-0.4 0.3v-0.6l0.6-0.3 0.2 0.2zm3 0.3h-0.1l0.3-0.5h0.3l-0.3 0.5zm3 0h-0.1v-0.3h0.3v0.3zm3 0h-0.1v-0.3h0.3v0.3zm-22-0.7-0.3 0.5-0.02-0.4 0.9-2h0.5l-0.8 0.9zm5 0.4-0.08-4e-3 -0.6-0.4-0.3-0.9h0.5v0.6l0.5-0.3 0.3 0.5h-0.6l0.3 0.5zm7-0.08-0.2 0.2v-0.7l0.4 0.4zm-9-0.2h-0.4l0.5-0.4 0.4-0.5 8e-3 0.9zm1-0.3h-0.1v-0.3h0.3v0.3zm12 0h-0.3l0.3-0.5h0.5l-0.3 0.5zm2 0h-0.2l0.3-1 0.5-0.3v-0.6l-1 1-1 0.7 0.7-0.7 0.04-1 0.4 1 1-1v0.6l0.7-0.4-0.9 1v1zm4 0h-0.1v-0.3h0.3v0.3zm-23-0.7-0.5 0.5 8e-3 -0.4 0.5-0.7 0.5 0.2zm3 0.5h-0.3l0.8-0.5h0.5l-0.8 0.5zm13-0.4-0.2 0.5-0.04-0.7-0.5 0.3v-0.6h0.5v-1h0.5l-0.04 0.9zm8 0.4h-0.1v-0.5h0.6l-0.3 0.5zm-9-0.4-0.2 0.2v-0.7l0.4 0.4zm7-0.2-0.1 0.5 0.01-2 0.2 1zm-12 0.06h-0.1v-0.3h0.3v0.3zm-6-0.4-0.2 0.2v-0.7l0.4 0.4zm13 0.09h-0.3v-0.7l1-1-0.7 0.8v1zm-2-0.3-0.2 0.2 0.04-1 0.3 0.7zm-11-0.5-0.5-0.02 0.7-0.3 0.3 0.3zm15-1-0.7 0.6v-0.3l1-1v0.5zm-3 0-0.4 0.3v-0.5l0.8-0.7v0.5zm5 0.3h-0.1v-0.3h0.3v0.3zm2-0.3h-0.1v-0.5h0.6l-0.3 0.5zm-6-0.3h-0.1v-0.3h0.3v0.3zm-2-0.3h-0.1v-0.3h0.3v0.3zm6-2e-4 -0.06-2e-4 -0.07-1 0.2 0.7 0.5-0.3-0.6 1zm1-0.09-0.2 0.2v-0.7l0.4 0.4zm-5-0.4-0.5 0.3v-0.3l1-0.6v0.3zm0.9 0.3h-0.1v-0.2l0.9-0.7-0.7 0.9zm1 0h-0.1v-0.3h0.3v0.3zm4-0.2-0.4 0.1 0.04-0.4 0.4-1 0.3 1zm-7-0.4h-0.1v-0.3h0.3v0.3zm4-0.3h-0.1v-0.3h0.3v0.3zm-4-0.5h-0.1v-0.3h0.3v0.3zm0.5-0.3h-0.1v-0.3h0.3v0.3zm3-1h-0.1v-0.3h0.3v0.3zm-11 32 0.1-0.5-0.3-0.3-0.3 0.3 0.4 0.9zm-26-0.08 0.4-0.2v-0.2l-0.8-0.3v0.8zm8-0.1h0.1v-0.3h-0.3v0.3zm65-8e-3h0.3l-0.8-0.5h-0.5l0.8 0.5zm-64-0.3h0.4l-0.4-0.4-0.4 0.4zm13 0h0.4v-0.5l-0.9-0.3-0.2 0.2 0.3 0.6zm53 0h0.05l2-0.8 0.3-0.5-0.7 0.02-1 0.8-0.4-0.2v0.8zm-60-0.3h0.3v-0.5l-0.5-0.3v0.8zm4-0.1 0.3-0.2-0.3-0.8 0.5 0.3 0.3-0.5h-0.8l-0.2-0.7-0.08 2zm-15-0.2 0.3-0.1 0.2-0.6h-0.8v0.8zm6 0.06h0.1v-0.3h-0.3v0.3zm14-0.2 0.1-0.3-0.3-0.7v1zm51 0.2h0.1v-0.3h-0.3v0.3zm-71-0.3h0.1v-0.3h-0.3v0.3zm-15-0.5 0.1-0.3-0.2-0.9-0.02 2zm30 0.2h0.3v-0.5l-0.5-0.3v0.8zm2 0h0.3v-0.5h-0.5v0.5zm2 0h0.1l0.3-0.5h-0.6v0.5zm40-0.8 0.8-0.9-8e-3 -0.5-2 2 0.01 0.5zm13 0.8h0.3v-0.5h-0.2l-0.3 0.5zm1-0.3 0.5-0.3v-0.4l1-0.6-0.5-0.03-2 1v0.6zm-60-0.3h0.1v-0.3h-0.3v0.3zm28-0.3 2-0.3v-0.5l-1 0.5-1-0.3-0.4 0.6zm16 4e-3h0.1v-0.3h-0.3v0.3zm-35-0.5h0.4l-0.4-0.4-0.4 0.4zm-32-0.3 0.5 0.02-0.3-0.3-0.7 0.3zm44 0.02h0.1v-0.3h-0.3v0.3zm41-0.3h0.4l0.3-0.5-0.5-0.3-0.7 0.8zm1 0h0.2l1-0.9v-1l-1 0.3v0.5l1 0.02-1 1v0.3zm-46-0.3 0.5 0.02-0.3-0.5-0.9-0.04 1-0.4 0.4 0.6 8e-3 -1-1 0.4-1 6e-3 1 0.9zm-42-0.4 0.1-0.1-0.6-1h-0.5v0.4l0.9 1zm74-0.09 0.3-0.3-0.3-0.3-0.4 0.9zm-33-0.9h0.2v-0.2l-0.8-0.3 0.3 0.5zm-3-0.3h0.7l-0.7-0.3-0.7 0.3zm0.9-0.2h0.1v-0.3h-0.3v0.3zm51-0.4 0.8-0.4-0.1-1-0.5 0.5h-0.5l0.8-0.9 0.4-0.8-2 3-0.02 0.4 2-1-2 2zm-28-0.1h0.4l0.3-0.9-0.9 0.7-0.2 0.1zm-56-0.8h0.1l0.3-0.5h-0.6v0.5zm1-0.3h0.3v-0.5h-0.5v0.5zm84-0.7 0.6-0.5 0.5-0.9h-0.2l-1 2zm-88-0.06 0.4-0.1v-0.2l-1 8e-3 0.7 0.5zm2 0.2h0.2l0.3-0.5-0.8 0.3v0.2zm0.9 0h0.1v-0.3h-0.3v0.3zm28-0.4 1-0.2 1-6e-3v-0.6l-1 0.3v-0.6l-1 0.02-0.9 0.7v0.4zm57 0.09h0.1v-0.3h-0.3v0.3zm-85-0.3h0.1v-0.3h-0.3v0.3zm87-0.5h0.1v-0.3h-0.3v0.3zm-57-0.3 0.3-0.09 0.2-0.6h-1l0.3 0.8zm56-0.2h0.1l1-2h-0.5v0.8l-0.6-0.1-0.1 1zm0.3-0.9-0.2 0.2v-0.7l0.4 0.4zm-59 0.6h0.4l-0.4-0.4-0.4 0.4zm28-0.3h0.1v-0.3h-0.3v0.3zm30 0h0.1v-0.3h-0.3v0.3zm-30-0.3h0.1v-0.3h-0.3v0.3zm16 0h0.1v-0.3h-0.3v0.3zm-11-0.3h0.3v-0.2l-0.5-0.3v0.6zm15-0.3h0.2v-0.5l-0.4-0.3v0.8zm0.9 0h0.1v-0.3h-0.3v0.3zm0.6 0h0.3v-0.5h-0.2l-0.3 0.5zm-49-0.3h0.4l-0.4-0.4-0.4 0.4zm44 0h0.1v-0.3h-0.3v0.3zm0.8 0h0.1v-0.3h-0.3v0.3zm2-0.3h0.4l-0.4-0.4-0.4 0.4zm-49-0.3h0.1l0.3-0.5h-0.6v0.5zm47-0.2 0.3-0.3-0.3-0.3-0.4 0.9zm4 0.2h0.1v-0.3h-0.3v0.3zm2 0h0.5l0.3-0.3-0.6-1-0.8 8e-3 -0.8 0.5 0.6 8e-3 0.3 1zm11-0.04 0.6-0.09v-1l1-1h0.7l0.8-0.8v-0.8h-0.4l-0.7 1-0.3-0.3 0.6-0.8-0.3-1h-0.5l-1 1-0.5-0.7-0.9 1 0.3 0.3 0.7-1 0.4 0.6-0.8 0.9v0.4l1-0.9v-0.7l1-2 2e-3 1-0.8 0.3v0.6l-1 2h0.4l-0.7 0.8zm-14-0.5h0.5l0.3-0.5h-1v0.5zm-2-0.3h0.2l0.2-0.4 0.3-1h-0.5l-0.6 2v0.2zm6-0.3 0.4-4e-3 -0.8-0.5 1-0.02-0.7-0.4 0.8-0.3v0.4h2l-0.7-0.5 1 0.3 0.3-0.6-0.4 0.4-1-0.5-3 0.6v0.9l0.4 0.4zm2-1h-0.4l0.4-0.4 0.4 0.4zm-5 1h0.1l0.3-0.8h-0.5v0.8zm5 0h0.1v-0.3h-0.3v0.3zm-3-0.5 1-0.02-2-0.5v0.5zm-22-0.3 0.07 0.03v-0.2l-1-0.6v0.5l0.9 0.2zm2-0.01h0.7l-0.7-0.3-0.7 0.3zm-5-0.5 0.4-0.3v-0.7h-0.5l-0.5 1 0.3 0.3zm4 0.03 0.2-4e-3 0.8-0.5-0.5-0.02 0.7-0.4 1 0.2v0.4l1-0.8 1-4e-3 0.5-0.9 2-0.7 0.4 0.2-0.2-0.9 2-0.09-1 0.5v0.2l2-0.5 0.3-0.02-1-0.8 0.8-0.08 0.9 0.09 0.9-0.6-2 0.3 0.9-0.6-0.09-3 0.3-0.3v3l2 0.3 1-0.8-2 0.6 2-1-0.4-0.02-2 0.8-0.3-0.02 2-1-2 0.3 2-0.7-0.09-0.5 2-0.04-2 1 2-0.3-0.4 0.6 0.8-0.3-0.3-0.5 1 0.3-0.7-0.3 1-1-1 0.6-0.3-0.3h0.6l-0.4-0.6 0.5 0.3 1-1-0.3-0.4 1-0.3v-0.6h-1l0.3-0.9-7 0.2-0.8 0.6-0.9-0.4 0.3 0.6-2 0.6-0.2-0.2 2-0.4-1-0.4-0.5 0.3-4 2 2-0.2-3 0.8-0.8 0.8 1 0.06-2 0.5 0.8 0.5-0.9 8e-3 -0.2 0.5 0.07-3 0.07-0.5 0.9 0.07-0.1-1 1-0.2 0.8-1-0.3 0.6 0.5 0.3v-0.4l1-1 0.5 0.3v-1l-0.6-0.6h0.7l-0.3-1 0.6-0.3-0.08 0.4 0.06 1 1-0.3-0.04 1-0.3-0.6-0.8 0.3v0.5l0.8-0.3 0.03 1 0.5-1-0.2-2 0.6 0.5 1-0.1 8e-3 -1 0.4 0.7 0.3-0.9-0.6-2-0.4 0.3-0.3-0.8 0.04-0.6 0.5 1 0.04-1-2-2-2-0.5 0.7-0.4 0.5 0.3-0.7-1h-0.9l-0.9-1 0.3 0.7h-0.5l-0.3-0.6-0.7 0.3 0.3-0.8h0.5v-1h0.6l-0.3 0.8h0.4l0.7-0.7-0.7 0.9 0.7 0.8h1l2 2 0.6-0.4-0.6-0.2 0.3-0.5 1 0.04-0.8 0.4-0.1 0.7 0.7 0.7 1 1 0.4-0.3 0.3 0.8 0.1 0.7 0.4 0.9h0.7v-0.7l-0.8-1-8e-3 -0.5 1 2 0.5-0.3v0.3l-0.8 0.8-0.7 0.02 0.9 0.7v0.8l0.8 1-0.6 0.7 0.3 0.3v-0.7l2 0.3 0.5-1 0.3 0.3-0.5 1h0.7l0.6-2h0.5l0.6-2h0.5v0.4l-0.8 1 0.2 0.6 1-2v-0.7l-0.5 0.3v-0.6h0.5l0.3 0.5 0.5-0.3v-1l-0.9-0.6 0.9 0.3 0.2-0.9 0.4 1 0.07 3e-4 3 1 0.3-1-0.8-0.8h0.8l0.04-1 0.5 1 0.04-2-0.9-0.6 2 0.1 0.4 0.5 8e-3 -2-2-0.8 0.3-1 0.2 1 0.5 0.5v-2l0.6-0.2-0.7-3-0.6-0.8 0.2-0.6-0.6-1-0.2-2-0.7-0.5 0.2-1-2-2h-0.5l-1-1h-0.6l-0.9-1-0.4 1 1 0.7h-0.7l0.8 1 0.9 3-0.3 0.3-0.5-0.8-0.02 0.5-0.5-0.8-8e-3 -1h-0.5l-0.04-2-0.4 1-0.3-0.8 0.1-0.8-0.7-2-0.5 0.3-0.06-0.7 0.08-0.8-0.8-0.7v-0.7h-0.5v1l-0.9-0.3 0.6-0.2v-2l-0.6-0.4 0.4 1h-0.5l-0.3-2-0.5 0.3v-0.8h-0.5l-0.3 2-0.6-0.1-0.02 0.8-0.7 1 0.6 0.2v2l0.7 0.3-2 0.04 0.2 4 2 0.3-0.9 0.06v2h0.5v0.6l-0.8-0.6-0.8 2 0.3 0.8h-0.5l-0.2 2 0.5 1-0.8-0.7-0.3 0.3v2l0.4 0.4 0.1 1-0.7-0.6 0.08-0.5-1-0.2 0.4 0.7-0.9 0.7 0.6 1-0.6 0.4 0.4-0.6h-0.5l-0.6 0.7 0.3 0.3h-0.6v-1l-0.9 0.3-0.4 0.5-2-4e-3 -0.7 0.7h0.8l0.7 0.8-1-0.6-1-0.8h-0.7l0.3 0.5-0.6 0.3 0.1-0.7-2 0.1 1-0.4-0.9-0.4h-1l0.3 0.8h-0.5v-0.8l-2 0.3 0.6 0.4-3 1 0.1 0.6-1 0.9 0.3 0.5-0.7-0.2-1 1 1-0.5 0.7 0.3-3 1-0.4-0.2-0.7 0.8h0.6v-0.5l0.9 0.3-1 0.4v0.5h0.6l-0.7 0.8 2 0.08-1 0.2v0.6l1 2v1l1 2-0.08 0.5 0.06 0.7 0.6-0.1 0.4 1 0.07-0.8 0.7 0.9 0.2-0.2 0.3 2 0.8 0.8 0.05-2 0.3-0.3v1l0.9 0.5-0.9 0.02v1l0.9 2 0.5-0.7 8e-3 0.6-0.5 1 0.6 2 0.7-0.3 0.3 0.5h0.8l0.04-1 0.3 0.7h0.7l-8e-3 0.9-0.5-0.8-8e-3 0.7 0.9 1h0.5l-0.2-3 2 0.08-1 0.2v1l3 0.09-3 0.5v1zm4-2-0.4-8e-3 -1-0.4 1-0.4-0.07-0.9 0.8-0.3-0.8 1 1-0.3v0.2l-2 0.6 1 0.4zm-7-0.3-0.2 0.2v-0.7l0.4 0.4zm8 0.08-0.4-4e-3 0.8-0.5 0.4-8e-3 -0.3 0.5zm-9-0.7-0.09 0.09-0.6-1h0.4l0.3 1zm0.4-0.1h-0.1v-0.3h0.3v0.3zm9 0h-0.1v-0.3h0.3v0.3zm-8-0.3h-0.4l0.4-0.4 0.4 0.4zm2-0.3h-0.1v-0.3h0.3v0.3zm2-0.04-0.9 0.04v-0.8l-0.8-0.8h0.8l0.3 1 1 0.2zm-4-0.2h-0.4l0.4-0.4 0.4 0.4zm10 0h-0.4l0.4-0.4 0.4 0.4zm-2-0.3h-0.4l0.4-0.4 0.4 0.4zm-4-0.3-0.2 0.2 0.04-1 0.3 0.7zm4 0.07h-0.1v-0.3h0.3v0.3zm0.9-0.3h-0.4l0.4-0.4 0.4 0.4zm-11-0.4-0.5 0.2 0.7-0.7 0.3 0.3zm2 0.1h-0.1v-0.3h0.3v0.3zm4-0.01-0.07-0.01-0.7-0.8h0.8v0.8zm0.9 0.01h-0.2l0.3-1 0.4-0.2-0.2 1zm2-0.1-0.8 0.2 0.5-0.5 2-0.3-0.8 0.5zm2 0.1h-0.1v-0.3h0.3v0.3zm-10-0.5h-0.1v-0.3h0.3v0.3zm13-0.3h-0.1v-0.3h0.3v0.3zm-13-0.5-0.3 0.4 0.03-0.5 0.5-1 0.03 0.8zm5 0.3h-0.1v-0.3h0.3v0.3zm-6-0.7-0.2 0.4-0.7-0.2v-0.5l0.9 0.3-1-1 0.04-1 0.3 0.8 1 0.9zm10 0.3-1 0.1 2-0.7 0.2 0.2-0.2 0.2zm-7-0.3-0.2 0.1-0.3-0.8h0.8v0.5zm4-0.1h-0.1v-0.3h0.3v0.3zm1 0h-0.1v-0.5h0.6l-0.3 0.5zm7-0.3h-0.4v-0.5l0.5-0.3 0.3 0.8zm-17-0.3h-0.1v-0.3h0.3v0.3zm4 0h-0.1v-0.3h0.3v0.3zm8-0.1-1 0.1 1-0.5 1-0.04v-1l0.6-0.4-0.4 1-0.4 0.4zm-4-0.1h-0.4l0.4-0.4 0.4 0.4zm7-0.4-1 0.2 0.8-0.5 3-0.3-1 0.4zm3 0.1-0.5-0.02 0.7-0.3 0.3 0.3zm-17-0.2h-0.1v-0.3h0.3v0.3zm10 0h-0.4l0.4-0.4 0.4 0.4zm8 0h-0.4l0.4-0.4 0.4 0.4zm-9-0.5h-0.1v-0.3h0.3v0.3zm10-0.5-2 0.4 0.9-0.7 2-0.3 0.2 0.2zm-18 0.2h-0.1v-0.3h0.3v0.3zm7 0h-0.1v-0.3h0.3v0.3zm1 0h-0.1v-0.3h0.3v0.3zm-0.7-0.3h-0.2v-0.2l1-0.6-0.7 0.9zm6 0h-0.4l0.4-0.4 0.4 0.4zm-14-0.3h-0.1v-0.3h0.3v0.3zm-1-0.3-0.6 4e-3 0.3-1 0.3 0.8 0.6 0.4zm1-0.2-0.5 0.1 0.02-0.6 0.8-1 0.06-1 0.2 0.9h0.5v-0.6l1 0.3-0.3-0.7 0.8 0.3 0.6 1-0.7-0.8-0.9 8e-3 -1 0.8 0.2 0.9zm14-0.08h-0.1v-0.5l-0.9-0.2 1-0.06v0.8zm-18-0.3h-0.4l0.4-0.4 0.4 0.4zm9 0h-0.1v-0.3h0.3v0.3zm11-0.3-0.8-0.01 0.9-0.2 0.7 0.3zm-17-0.2h-0.1v-0.3h0.3v0.3zm6 0h-0.1v-0.3h0.3v0.3zm0.8 0h-0.1v-0.3h0.3v0.3zm1-0.3-0.5 0.4 1-1-0.3-0.8 0.8 0.7-0.6 0.5zm-8 8e-3h-0.2l0.2-2h0.4l0.8 0.3v0.4l-1-0.3v1zm6-0.3h-0.1l-0.4-0.6 0.6 0.4v0.2zm-8-0.4-0.2 0.2v-0.7l0.4 0.4zm0.8-0.2-0.1 0.5v-2l0.2 0.9zm8 0.2-0.4 0.2 1-1h0.2l-0.3 0.8zm-1-0.4h-0.1v-0.3h0.3v0.3zm-10-0.3h-0.1v-0.3h0.3v0.3zm13-0.2-0.3 0.3 0.4-0.7-0.7-0.5 0.6-8e-3 0.4 0.6zm-11-0.2-0.2 0.2 0.04-1 0.3 0.7zm4-0.2h-0.1v-0.3h0.3v0.3zm-2-0.3h-0.4l-0.3-0.5h1v0.5zm1 0h-0.1v-0.3h0.3v0.3zm2 0h-0.1l0.3-0.5h0.3l-0.3 0.5zm2 0h-0.1v-0.3h0.3v0.3zm-8-0.5h-0.1l-0.3-0.5h0.6v0.5zm2 0h-0.1v-2l-0.7-0.3 0.9-0.04v2zm7-0.02-1-0.5 0.9-0.4-0.3-0.6 0.6 0.4-0.3 0.9 0.7-0.4-0.4 0.6zm2 0.02h-0.1l-0.3-0.6 0.3-0.3 0.3 0.8zm-3-0.6-0.4 0.4v-0.5l0.8-0.7v0.4zm4 0.04-0.4 0.3v-0.5l0.6-0.3 0.2 0.2zm-6 0.06h-0.3v-0.6l0.5 0.3v0.2zm-1-0.3-0.5-0.02 0.7-0.3 0.3 0.3zm17 0.02h-0.1l-0.3-0.5h0.6v0.5zm-8-0.4-0.2 0.2v-0.7l0.4 0.4zm3-0.2h-0.4l0.4-0.4 0.4 0.4zm7-0.09-0.2 0.2v-0.7l0.4 0.4zm-17-0.2h-0.3v-0.6l0.5 0.3v0.2zm2 0h-0.1v-0.3h0.3v0.3zm5 0h-0.1v-0.3h0.3v0.3zm-14-0.3h-0.1v-0.3h0.3v0.3zm5-0.09-0.2 0.2v-0.7l0.4 0.4zm18 0.07-0.7-0.3 0.6-2 0.7-0.7v-1h0.4l-0.2 2-0.7-0.3-0.08 1 0.02 0.7zm-22-0.4-0.1 0.1-0.4-0.4v-0.5l0.6 0.6zm6 0.1h-0.09l0.7-1h0.5l-1 1zm4-0.1-0.1 0.1-0.6-0.6v-0.5l0.9 0.9zm4 0.1h-0.4l0.4-0.4 0.4 0.4zm0.7 0h-0.1v-0.3h0.3v0.3zm-7-0.3h-0.1l0.3-0.5h0.3l-0.3 0.5zm3 0h-0.1v-0.3h0.3v0.3zm-10-0.3h-0.1v-0.5h0.6l-0.3 0.5zm1 0h-0.1v-0.3h0.3v0.3zm11 0h-0.1v-0.3h0.3v0.3zm1 0h-0.1l-0.2-0.4 0.4-1 0.04 1zm0.8 0h-0.1v-0.3h0.3v0.3zm5-0.09-0.2 0.2v-0.7l0.4 0.4zm-24-0.3-0.2 0.3-8e-3 -0.9 1 0.04-0.8 0.3zm27-2e-3 -0.1 0.1-0.8-0.5 0.3-0.3 0.8 0.5zm-26-0.1h-0.1v-0.3h0.3v0.3zm7 0h-0.1v-0.3h0.3v0.3zm-4-0.3h-0.1v-0.3h0.3v0.3zm12-0.3-0.2 0.3-0.3-0.8 0.5-0.3 0.3 0.4zm2 0.1-0.1 0.3-0.7-2 0.9 1zm-11-0.07h-0.1v-0.3h0.3v0.3zm6 0h-0.3v-0.5h0.5v0.5zm-10-0.3h-0.3v-0.5h0.5v0.5zm6-0.3-0.4 0.3v-0.5l0.6-0.3 0.2 0.2zm7 0.3h-0.1l-0.4-0.6 0.6 0.4v0.2zm8-0.09-0.2 0.2v-0.7l0.4 0.4zm-23-0.2-0.9-0.02-1-0.5 3 0.3 0.2 0.2zm5 0.02h-0.1v-0.3h0.3v0.3zm12-0.1-0.08 0.08-0.6-1h0.5l0.3 0.9zm-13-0.3-0.1 0.1-1-0.5v-0.3l0.7 8e-3 0.8 0.5zm4 0.2h-0.1v-0.3h0.3v0.3zm2 0h-0.1v-0.3h0.3v0.3zm16 0h-0.4l0.4-0.4 0.4 0.4zm-11-0.3h-0.1l-0.3-0.6 0.3-0.3 0.3 0.8zm-9-0.3h-0.1v-0.3h0.3v0.3zm8 0h-0.09l-1-1 1 1v0.2zm8 0h-0.1l-0.3-0.5h0.6v0.5zm-17-0.3h-0.1v-0.3h0.3v0.3zm2 0h-0.3l0.3-0.5h0.2v0.5zm8-0.2-0.4 0.2-0.5-0.7-0.4-0.8 1 1 0.8-0.4 0.8 0.5-0.8-0.2zm-16-0.03h-0.7l0.3-0.5 1 0.3v0.2zm5-0.09-0.7-0.04-2e-4 -0.2-2e-4 -0.2 0.7 8e-3 0.7 0.5zm6 0.09-0.07-4e-3 -0.8-0.5 0.9-8e-3v0.5zm19-0.6-0.09 0.7-0.3-2 1 0.3-0.02-2-0.7 1 0.3-6-0.4-3-0.4 1-1-0.3-0.2-1-0.3-3 0.4 1 0.05 2 0.8 0.7 8e-3 -2 0.6 0.8-0.4-2-0.5-0.9-0.5 0.3 0.3-0.8 0.8 0.3 0.3 1 0.5 0.9v2l1-0.3-0.7 0.5-0.02 3-0.02 3 0.3-0.3 0.4-3-0.2 6 0.5-0.3v0.6l-2-0.3zm-23 0.3h-0.1v-0.5l0.5-0.3-0.3 0.8zm1 0h-0.1v-0.5h0.6l-0.3 0.5zm17 0h-0.1v-0.5l1-3 0.2 0.2-1 3zm-15-0.3h-0.3v-0.5h-0.8v-0.5h0.6l0.8 0.8v0.3zm13-0.3-0.4 0.3v-0.9h0.5l0.3-1-2-3 0.4-0.4 2 3 0.7-0.3v1h-0.5v1zm2 0.2-0.3 0.02-0.6-0.6v-0.4h0.5v0.7l0.7 0.3zm3 0.02h-0.1v-0.3h0.3v0.3zm-28-0.3-0.2 4e-3v-0.5l1 8e-3 -0.8 0.5zm14 4e-3h-0.1v-0.3h0.3v0.3zm-12-0.3h-0.3v-0.6l0.5 0.3v0.2zm5-0.2-0.3 0.3 0.4-0.9 0.3 0.3zm9-0.06-0.6 0.3 0.3-0.5-6-3 2-0.05 5 2h0.7v0.6l-0.5-0.3zm-2-0.01h-0.1v-0.3h0.3v0.3zm1 0h-0.1v-0.3h0.3v0.3zm-2-0.3h-0.3v-0.6l0.5 0.3v0.2zm-8-0.3-0.3-0.01-1-0.5 0.8-0.03 0.8 0.5zm20-0.2-0.3 0.4-8e-3 -0.9 0.5-0.3-8e-3 0.4zm5 0.3h-0.4l0.4-0.4 0.4 0.4zm-29-0.3h-0.4l0.4-0.4 0.4 0.4zm1-0.02-0.3 0.01 0.8-0.5 0.8 0.03-1 0.5zm6 0.02h-0.3l0.3-0.5h0.5l-0.3 0.5zm4-8e-3h-0.3l-0.8-0.5h0.5l0.8 0.5zm1 8e-3h-0.3l-0.3-0.5h0.5l0.3 0.5zm7 0h-0.2l1-1 0.2 0.2-0.7 1zm9-0.03-0.4-0.03-0.9-0.2v-0.5l1 0.4 0.5 0.5zm-7-0.2h-0.1v-0.3h0.3v0.3zm11-0.3-0.1 0.5v-2l0.2 0.9zm-24 0.07h-0.4l0.4-0.4 0.4 0.4zm-4-0.5-0.5 0.4 0.3-0.9h0.8l-0.2 0.1zm11 0.3h-0.1v-0.3h0.3v0.3zm-0.4-0.3h-0.1l-1-1h0.5l1 1zm15-0.1-0.3 0.2 0.4-2 0.4-3 0.2 3-0.4-7e-4v2zm-27-0.2h-0.4l0.4-0.4 0.4 0.4zm17 0h-0.1v-0.3h0.3v0.3zm5 0h-0.1v-0.3h0.3v0.3zm-1-0.7-0.3 0.2v-0.8h0.5v0.5zm-22-0.1h-0.1v-0.3h0.3v0.3zm2 0h-0.6v-0.2l2-0.2-0.3 0.4zm-1-0.3h-0.1v-0.3h0.3v0.3zm4-0.3h-0.1v-0.2l0.9-0.7-0.7 0.9zm19 0h-0.1v-0.3h0.3v0.3zm-17-0.3h-0.1v-0.3h0.3v0.3zm13 0h-0.1l-0.3-0.8 0.5-0.3v1zm-17-0.3h-0.1v-0.3h0.3v0.3zm0.9-0.6-0.7 0.3 1-0.8h0.5l-0.2 0.2zm22 0.3h-0.1v-0.3h0.3v0.3zm-24-0.3h-0.1v-0.3h0.3v0.3zm5 0h-0.4l0.4-0.4 0.4 0.4zm8 0h-0.1l-0.3-0.6 0.3-0.3 0.3 0.8zm3-0.09-0.2 0.2v-0.7l0.4 0.4zm6-0.3-0.4 0.5 0.3-0.7-0.6-0.8h0.5l2 1v0.1l-1-0.04-0.7-0.7zm-20 0.08h-0.4l0.4-0.4 0.4 0.4zm16 0h-0.4v-0.5h0.5l0.3 0.5zm-13-0.3h-0.1v-0.3h0.3v0.3zm2 0h-0.4l0.4-0.4 0.4 0.4zm4-0.3h-0.2l-0.3-0.5 0.8 0.3v0.2zm0.6-0.3h-0.1v-0.3h0.3v0.3zm5-0.1-0.1 0.1-0.4-0.9 0.7 0.7zm4 0.05-0.2 0.2 0.04-1 0.3 0.7zm-1-0.5-0.1 0.5-0.06-1-1-1-0.3 0.09-0.6-1 3 2 0.6 0.9-0.7-0.3zm10-0.2h-0.1v-0.3h0.3v0.3zm-5-0.5h-0.1l-0.4-0.6 0.6 0.4v0.2zm3-0.09-0.2 0.2v-0.7l0.4 0.4zm0.5 0.09h-0.1v-0.3h0.3v0.3zm0.8 0h-0.1v-0.3h0.3v0.3zm0.5 0h-0.1v-0.3h0.3v0.3zm-15-0.5h-0.4l0.4-0.4 0.4 0.4zm9 0h-0.1v-0.3h0.3v0.3zm-1-0.3h-0.1v-0.3h0.3v0.3zm-1-0.8h-0.4l0.4-0.4 0.4 0.4zm-0.7-0.3-0.2-0.02-2-1-6e-3 -0.4 0.9 0.3 1 1zm8 0.02h-0.1v-0.3h0.3v0.3zm0.8 0h-0.1v-0.3h0.3v0.3zm-5-0.5h-0.3v-0.6l0.5 0.3v0.2zm-1-0.3h-0.4l0.4-0.4 0.4 0.4zm-0.8-0.3h-0.4l0.4-0.4 0.4 0.4zm-6-0.4-0.2 0.2v-0.7l0.4 0.4zm2-0.3-0.2 0.2v-0.7l0.4 0.4zm3-0.3-0.2 0.2v-0.7l0.4 0.4zm6 0-0.2 0.2v-0.7l0.4 0.4zm1 0.09h-0.1v-0.3h0.3v0.3zm0.5 0h-0.1v-0.3h0.3v0.3zm-12-0.3h-0.1v-0.3h0.3v0.3zm3-0.3h-0.1v-0.3h0.3v0.3zm3 0h-0.1v-0.3h0.3v0.3zm2 0h-0.1v-0.3h0.3v0.3zm-9-0.5h-0.1l-0.3-0.5h0.9l-0.3 0.5zm3 0h-0.1l-0.7-0.9 0.9 0.7v0.2zm8-0.8h-0.3l0.3-2 0.1-0.2 0.2 2zm-11-0.5h-0.1v-0.3h0.3v0.3zm8 0h-0.1v-0.3h0.3v0.3zm-7-0.6-0.2 0.2v-0.7l0.4 0.4zm0.5 0.09h-0.1v-0.3h0.3v0.3zm7-0.3h-0.1v-0.3h0.3v0.3zm1-0.5h-0.1v-0.3h0.3v0.3zm-7-0.3-0.3-0.03-1-0.3 0.7-0.4 1 0.3v0.5zm2 0.03h-0.4l0.4-0.4 0.4 0.4zm1 0h-0.4l0.4-0.4 0.4 0.4zm-2-0.3h-0.1v-0.3h0.3v0.3zm6-0.09-0.2 0.2v-0.7l0.4 0.4zm-9-0.2h-0.1v-0.3h0.3v0.3zm5-0.09-0.2 0.2v-0.7l0.4 0.4zm5-0.4h-0.1v-0.3h0.3v0.3zm-0.7-0.4-0.06 0.04-0.6-0.2 0.3-1 0.4 2zm-4-0.2-0.09-0.03-1-1 1 0.04 1 0.5-0.9 0.04 0.3 0.8zm3-0.06-0.2 0.2v-0.7l0.4 0.4zm-6-0.9-0.4 0.1-0.7-0.5 1-8e-3v0.2zm0.8-0.08h-0.1v-0.3h0.3v0.3zm-2-2h-0.2l0.04-3 0.2 0.5 0.2 2zm0.5-2-0.1 0.5 0.01-2 0.2 1zm1-0.5h-0.3l-0.7-0.9 1 0.9zm-2-0.8h-0.2l-0.3-0.5 0.8 0.3v0.2zm8 43h0.8l0.06-0.9 0.3 1 1-0.3 2-0.6 0.3-0.8-0.9-0.04 3-0.8v-2l-0.9-0.06 0.9-0.2 0.2-2 2-0.4-5 0.8 0.7 0.5-1 8e-3 -2 2 0.7 0.3-1 0.04-1 1v0.5l-0.9 1zm2-1-1 0.2 3-0.7 0.2 0.2-0.2 0.2zm-0.8-0.4h-0.1v-0.3h0.3v0.3zm2-0.5h-0.4l0.4-0.4 0.4 0.4zm0.2-0.9-0.2 0.2v-0.7l0.4 0.4zm1-0.4h-0.2v-1l0.4-0.2v1zm1-0.3h-0.1v-0.3h0.3v0.3zm0.7-1-0.7 0.03-0.7-0.8 1 8e-3 -0.7 0.5 1 0.2zm-29 4 0.5-0.1-1-1h-0.8v-0.6l-0.3 0.3 1 2zm20 0.2 0.4 0.02 0.7-1-0.7 0.4 0.3-0.9h-0.6l0.4-0.4 0.4-8e-3 1-1v-0.6l-0.6-0.2 0.6-1 0.4 0.2-0.2-2-0.9 0.2 0.2 2-1-0.3v1l-0.8 2h-0.3l0.5-1-0.5-0.7-0.6 1v0.7l-1 2 2 0.8zm7-0.02h0.7l-0.7-0.3-0.7 0.3zm1-0.2h0.4l-0.4-0.4-0.4 0.4zm10-0.1 0.2-0.1v-1l-0.5-0.3-0.3 0.5 0.3 1zm-9-0.1h0.4l-0.4-0.4-0.4 0.4zm-21-0.3 2-1-0.9-0.3-2 0.9 0.7 0.4zm20 0.02h0.4l-0.4-0.4-0.4 0.4zm-57-0.3h0.1l0.3-0.8-0.5 0.3v0.5zm58-0.04h0.4l1-0.5h-0.8l-1 0.5zm-1-0.2h0.1v-0.3h-0.3v0.3zm-6-0.4 0.2-0.2v-0.8l-0.8 0.7 0.3 0.5zm9 0.1 0.5 0.02-0.3-0.3-0.7 0.3zm-20-0.6 0.8-0.3-0.2-0.2-1 0.5v0.3zm19 0.3h0.3l-0.3-0.8 1-0.06-1-0.3 1-0.4-2-0.3v0.9l0.3 0.8zm7 0h0.1v-0.3h-0.3v0.3zm-6-0.3h0.1v-0.3h-0.3v0.3zm6-0.4 0.4-0.1v-0.5h-0.5l-0.3 0.8zm1-0.3 0.4-0.2v-0.5l0.9-0.04-1-0.6-0.2 0.2-0.4 1zm-2-0.1h0.06l-0.3-1 0.5 0.2 0.1-0.5-0.3-1-2-1-2 0.2 0.1 0.6-1 0.06 0.9 0.2 2-0.8-0.3 1h0.6l-0.2 2 0.9 0.1 0.4 0.4zm-0.3-2h-0.1v-0.3h0.3v0.3zm-23 2h0.7l-0.7-0.3-0.7 0.3zm-1-0.2h0.1v-0.3h-0.3v0.3zm20 0h0.1v-0.3h-0.3v0.3zm-9-0.3h0.1l0.3-0.8h-0.5v0.8zm8-0.04 0.3 2e-3 1-0.5-1-0.08 0.7-0.3v-0.7h0.8v0.8l1-0.6-0.2-0.2-3-0.2v2l0.7 0.3zm-0.02-1-0.5-0.02 0.7-0.3 0.3 0.3zm9 0.5 0.2-0.2-0.3-0.7-0.04 1zm-16-0.5 0.3-0.5 0.5 0.3v-0.6h-1l0.02 1zm15 0.3h0.2v-1h-0.5v1zm-0.7-0.5h0.1v-0.3h-0.3v0.3zm-21-0.3h0.1v-0.3h-0.3v0.3zm20-0.9 0.1-0.5 0.5 0.7 8e-3 -0.9 0.7-0.3-1 8e-3 -1-0.3 1 0.5 0.06 1zm-13 0.1h0.1v-0.3h-0.3v0.3zm14 0h0.3v-0.5h-0.5v0.5zm0.7 0h0.1v-1h-0.5l0.3 1zm-17-1 0.4-0.3 0.4 0.6 1-0.2 1-0.08v-0.4l-0.5-0.3 0.4-0.6-0.5 0.3-1-0.8 1 0.4-0.3-1 0.8 1 0.04-0.2 0.2-0.9-1-1-1 0.6-0.8 1-0.3 1 0.3 1zm0.6-1h-0.2l-0.3-0.9 0.8 0.7v0.2zm-28-0.3h0.1v-0.2l-0.6-0.4 0.4 0.6zm-0.5-0.8h0.1v-0.3h-0.3v0.3zm-37-0.4 1-0.1 0.7-1 0.02-0.4-2 0.1-2e-4 0.4-2e-4 0.4-0.5 0.3-0.3-2-0.5 0.3 0.5 1-0.7 8e-3 0.8 0.5zm64-2 0.2-0.1v-2l-0.8 0.7 0.6-2 0.5-0.3-0.4 1h0.6l0.3-0.05 0.4 0.7 0.02-0.8 0.5 0.8-0.4-2-0.1-0.2 0.4-2-0.5-0.3v0.9l-0.8-0.8v-0.6h-0.5l-0.2 1 0.5 0.9-0.6-0.4-0.9 2 0.1 0.8 0.6 1zm1-2h-0.1v-0.3h0.3v0.3zm-0.4-0.5-0.3 0.4v-0.5l0.5-0.8v0.5zm-46 3h0.08l0.9-1-1 0.5 0.3 0.5zm39 0h0.1v-0.3h-0.3v0.3zm-37-0.6 0.04-0.08 1-2-2 1 0.3 0.5zm37 0.05h0.1v-0.3h-0.3v0.3zm6-0.07 0.2-0.2-0.3-0.7-0.04 1zm-50-0.2h0.1v-0.8h-0.5l0.3 0.8zm39-4e-3 0.3 4e-3v-0.5l-1 8e-3 0.8 0.5zm8 4e-3h0.4v-0.8l-0.6 0.2-0.2 0.6zm4 0h0.1v-0.3h-0.3v0.3zm-71-2h0.3l-1-1-0.3 0.3 0.7 0.8zm73-0.07 0.2-0.2-0.3-0.7-0.04 1zm-0.5-0.4 0.1-0.3-0.3-0.7v1zm-75-0.07h0.2l-4-4 0.7 0.9-0.3 0.3-2-3-3-4v-0.8h-1v0.3l0.5 1h0.8v0.2l-0.3 0.8-0.4-0.3 0.8 2 0.6-0.2 0.9 0.5-0.3 0.5 2 2 0.4-0.1 0.2 0.5 0.6 0.7 0.6-0.5 0.9 1-0.4 0.4 0.8-0.4-0.3 0.9 0.5-0.3 0.9 1zm-3-2h-0.1l-0.4-0.6 0.6 0.4v0.2zm-4-6h-0.1v-0.3h0.3v0.3zm-0.8-1h-0.1v-0.3h0.3v0.3zm9 8h0.1v-0.2l-0.9-0.7 0.7 0.9zm36-0.3h0.1v-0.3h-0.3v0.3zm-0.8-0.3h0.1v-0.3h-0.3v0.3zm-38-0.5h0.1v-0.2l-0.6-0.4 0.4 0.6zm2 0h0.1v-0.3h-0.3v0.3zm-8e-3 -0.8h0.1v-0.2l-2-2-2-3-0.01 1-0.5-0.3 0.3 0.8 0.4-0.3 2 3v0.9h1l0.3 0.8zm-3-2h0.1v-0.2l-0.6-0.4 0.4 0.6zm-2-0.5h0.1v-0.3h-0.3v0.3zm3-0.3h0.1v-0.3h-0.3v0.3zm-4-0.5h0.1v-0.2l-0.6-0.4 0.4 0.6zm3-0.5h0.1v-0.3h-0.3v0.3zm45-0.4 3-2-0.8-0.02 2-1-0.2-0.2-2 1h-0.5l-0.4 0.6 1-0.4-2 1h-0.4l-1 1zm-46-2h0.1v-0.3h-0.3v0.3zm2-2 0.1-0.3-0.3-0.7v1zm62-1h0.1v-0.3h-0.3v0.3zm2-1h0.1v-0.2l-0.9-0.7 0.7 0.9zm-67-0.4 0.2-0.2-0.4-0.4v0.7zm68-7h0.4v-2h-0.5v0.8l-0.3 0.8zm-68-0.8 0.3-0.4-0.03-0.8-0.5 1-0.03 0.5zm-5-2 0.2-0.2-0.3-0.7-0.04 1zm82-0.7h0.1v-0.8h-0.5l0.3 0.8zm-2-1h0.1l0.9-0.3-0.7-0.4-0.4-8e-3v0.8zm-76-0.5h0.1l0.7-0.9-0.9 0.7v0.2zm75-0.5h0.1v-0.3h-0.3v0.3zm3-0.3 0.8 0.06 0.06-1 0.2 0.9 1-0.1 0.6 0.4v-0.9l0.6 0.3 0.8-0.6v0.6h1v-0.5h-0.5v-1l-0.9-0.07 2-0.4 0.2 0.2-0.8 0.5 2 0.07 0.4-0.06v0.5h0.8l-0.2-0.7-2-0.3 0.9-0.06v-0.5h0.8v0.7l0.8 0.3 0.8-0.3v-0.7l-3-0.3-0.2-0.2h3l0.5 0.5 2 0.3-0.3-0.5 0.6-0.8h-0.9l-0.8-0.8h0.8v0.5l1-0.08v-0.4l-2-0.3-0.5 0.3 0.3-1 1 0.2-1-0.5 0.3-1h-1l-0.3-0.5h0.6l-0.3-0.5h1v0.5h1l0.5-1 1-8e-3 -0.7-0.5 1-0.3-2 0.1v-0.4h1v-0.5h-1v-0.6l-1 0.3-1-0.6-2 0.8 2 0.02 0.2-0.4 2 0.9-2 0.4-2-0.4-0.5 0.7-8e-3 -0.7-0.9-0.06 2-0.4-2-0.06-0.5 1 0.2 0.4-0.5 0.8-8e-3 -0.6-2 0.01 1 0.9-0.5 0.3-0.3-0.7-3 0.03-0.7-0.9-1 0.4-0.06 1 0.07 1-0.5-0.9-1 0.3v0.5l0.7-0.3 0.4 0.6-0.3 1-0.4-0.2-0.08 0.6-0.2 1-0.4 0.4v1l1 0.7v0.6l1 0.6 0.6-0.6-0.3 0.8zm-0.1-0.5h-0.1v-0.3h0.3v0.3zm4-1h-0.1l-0.2-2 0.4-0.7 8e-3 2zm-6-0.3h-0.1v-0.3h0.3v0.3zm-0.3-0.5h-0.1v-0.3h0.3v0.3zm0.07-1-0.5 0.07v-0.5h0.8l0.1 0.3zm12 0.09-0.5-0.02 0.7-0.3 0.3 0.3zm-8-0.3-0.2 0.2 0.04-1 0.3 0.7zm6 0.07h-0.4l0.4-0.4 0.4 0.4zm-3-0.3h-0.7l-0.3-0.5 1 0.1 0.3 0.3zm4 0h-0.1v-0.3h0.3v0.3zm-3-0.5-0.4 0.2-3-0.7-0.5-0.5h-0.4l0.2 1-0.3-0.7h-0.7l-0.3-1-1 0.2 0.4-0.6-1 0.4 0.4-0.4-1-1 0.3-4e-3 2 0.8 0.02-0.6 0.8 1 0.4-0.4 0.6 0.7 2 0.6 0.4-0.6 0.3 1 2 0.2zm-5-0.8h0.1v-0.3h-0.3v0.3zm-3 0.8h-0.1v-0.3h0.3v0.3zm2 0h-0.4l0.4-0.4 0.4 0.4zm1 0h-0.1v-0.3h0.3v0.3zm-2-0.3h-0.1v-0.3h0.3v0.3zm6-0.3h-0.1v-0.3h0.3v0.3zm0.5 0h-0.1v-0.3h0.3v0.3zm1-0.02-0.5-0.02 0.7-0.3 0.3 0.3zm-10-0.3-0.2 0.2v-0.7l0.4 0.4zm2 0.09h-0.1v-0.3h0.3v0.3zm1 0h-0.1v-0.3h0.3v0.3zm-2-0.3h-0.07l-0.3-0.5 0.4-0.3v0.8zm7 0h-0.1v-0.3h0.3v0.3zm-2-0.8-0.1 0.3-0.3-1 0.6 0.6zm0.5 0.2h-0.1v-0.3h0.3v0.3zm-2-0.3h-0.1v-0.3h0.3v0.3zm-5-1-0.3 0.5-0.3-0.3v-0.5l0.5 0.3 0.2-0.7 0.3 0.3zm7 0.5h-0.1v-0.3h0.3v0.3zm-5-0.3h-0.1v-0.3h0.3v0.3zm5 0h-0.1v-0.3h0.3v0.3zm1-0.3h-0.4l-0.4-0.6 0.8 0.3 2e-3 -0.9-0.8-0.7 1 0.6-0.3 0.8h0.5l-0.3 0.5zm-0.5-0.8h-0.1v-0.3h0.3v0.3zm4 0h-0.4l0.4-0.4 0.4 0.4zm0.7-0.3h-0.1v-0.3h0.3v0.3zm-0.9-0.5h-0.4l0.4-0.4 0.4 0.4zm-86 9h0.1v-0.3h-0.3v0.3zm-2-0.8 0.9-0.6 0.3-0.6-1 0.5-1 1zm84-0.3h0.7l-0.7-0.3-0.7 0.3zm12-2 0.6-0.5v-0.7l-0.8 0.8h-0.3l0.3-1-2 0.8v0.6l1 0.5zm-51-0.03 0.1-0.1-0.4-2h-0.5v0.8l0.6 1zm2-0.1 0.08-0.2-0.4-2-0.5-0.1-0.1 2 0.5-0.8 8e-3 1 0.4 0.4zm-1-0.2 0.1-0.1-0.4-2h-0.6l0.4 0.9 0.3 1zm22-0.5 0.09-0.5 0.5-0.5v-2l-4 0.4-0.2 0.2 0.6 1h0.6l0.5 1 1 0.3zm-25 0.4h0.3v-0.8h-0.5v0.8zm6 0h0.2l-0.6-3-0.2 2 0.3 0.7zm1-0.08 0.1-0.1-0.6-3-0.4 0.6 0.4 2 0.4 0.6zm-8-0.5h0.3v-0.5h-0.5v0.5zm2 0h0.3l-8e-3 -0.4-0.5-0.8-8e-3 1zm-4-0.3h0.4v-0.2l-0.3-0.8h-0.5v1zm0.8-0.2 0.1-0.3-0.3-0.7v1zm-2-0.07h0.3v-0.5h-0.2l-0.3 0.5zm4 0h0.3v-0.8l-0.5 0.3v0.5zm8-0.1 0.2-0.1-0.4-2-0.3-0.3v2l0.3 0.8zm-9-0.2 0.2-0.2-0.4-0.4v0.7zm11-6e-3 0.1-0.1-1-2-3e-3 1-2e-3 1 0.5 0.3 0.02-0.7 0.6 1zm-15-0.2h0.1l0.3-0.5h-0.6v0.5zm58-0.2 0.4-0.1 0.7-0.03v-0.5l0.9-1-1-0.6-0.4-0.3 0.3 2-0.9-0.9v-1l-2 0.7-0.8-1-0.3 0.7h-0.7l0.3 0.9-2-0.3-0.3 0.8v0.5h1l-0.3-0.5 1-0.7 2-0.03v0.4l-0.5 0.3v0.4l2 0.6zm-58-0.1 0.06 0.03-0.3-0.8h-0.7v0.5l0.9 0.2zm16 0.03h0.2v-0.2l-0.8-0.3 0.3 0.5zm-0.8-0.7 0.2-0.2-0.8-2-0.04 2 0.3 0.9zm2-0.1 0.5 0.04v-0.4l-0.8-0.3-0.9-2-0.4 0.3v1l0.8-0.3v1l0.2 0.2zm37 0.07h0.3v-0.2l-0.5-0.3v0.6zm-57-0.3h0.3l-0.3-0.5h-0.5l0.3 0.5zm21-0.6 0.6-0.02-0.7-0.3v-1l-0.6-0.4 0.4 0.7-1-1-0.2-0.7-0.4 0.3 0.6 2 0.8 0.9zm32 0.02h0.4l-0.3-0.5h-0.5v0.5zm-55-0.8h0.4l-0.4-0.4-0.4 0.4zm24-0.4 0.1-0.1-0.9-0.5 0.3-0.5 0.5 0.3v-0.8l-0.9-0.4-0.5 0.1-0.4-0.7-8e-3 0.7 1 2 0.5 0.4zm22-0.2 0.8-0.2 0.4-0.4-2 0.2-0.3 0.5zm-21-0.4h0.3v-0.4l-1-0.7-0.3-1-0.3 0.6 1 2zm7-0.5h0.1v-0.3h-0.3v0.3zm-1-0.3h0.1l-0.3-0.5 0.8-0.2-3-3-0.3-0.9h-0.4l0.4 2 0.4 0.9 0.9 8e-3 -0.8 0.5 2 2zm-0.2-0.6-0.1 0.1-0.7-0.8h0.6l0.3 0.6zm23 0.6 1 5e-3 -0.9-0.2-1 0.2zm-28-0.2h0.2v-0.5l-0.6-0.3-0.3 0.3 0.3 0.6zm11-0.09 0.2-0.2-0.4-0.4v0.7zm-12-0.2h0.2l-0.3-0.3 0.6-0.7-0.9-1-0.3 0.3 0.9 1-1-1v0.5l0.8 1zm18-0.8 0.5-0.6 0.3 0.7 0.6-2 0.7 0.3 1-0.7 0.4-0.02-0.3 0.5h0.9l-0.3-0.5 0.8-0.3 0.2 0.6-0.07-0.8-0.9 0.2v-0.5l-2 0.3 0.4-0.6-0.4 2e-3 -2 1-0.04 0.4-0.2 0.8-0.3 1zm1-1h-0.2v-0.5l0.8-0.3h0.3l-0.7 0.8zm7 2h0.1l0.3-0.5h-0.6v0.5zm1-0.02 0.4 0.02 1-0.6-4-2-0.8 0.04 1 0.6 1 1 0.6 0.04-1 0.5zm-15-0.2h0.1v-0.3h-0.3v0.3zm-10-0.5h0.6l-0.7-0.8-0.5 0.3v0.5zm10-0.09 0.2-0.2-0.4-0.4v0.7zm-11-0.6 0.4-0.4-0.6-0.6-0.5 0.3 0.3 1zm12 0.4h0.7l1-0.8v-1l-1-2-3 0.3v0.7l2 3zm12 0h0.1v-0.3h-0.3v0.3zm-14-0.5h0.1v-0.3h-0.3v0.3zm-9-0.3h0.3l-0.3-1-0.7-0.3v-0.8l-0.6 0.6 1 2zm-0.3-1h-0.1v-0.3h0.3v0.3zm-39 0.3 0.2-0.3-0.05-2h-0.8l0.2 2 0.3 0.8zm-2-0.04h0.2l0.2-2-0.2-0.6h-0.5v2zm3-0.02 0.5 0.02-0.3-0.3-0.7 0.3zm1 0.02h0.4l-0.4-0.4-0.4 0.4zm0.9 0h0.1v-0.3h-0.3v0.3zm2 0h0.5v-1h1v-0.5h-1v-1h-0.5l-0.3 2v1zm2 0h0.6l-0.2-0.7h-0.7l-0.2 0.7zm3-0.3h0.5l-0.04-0.4-0.9-2-0.5-0.2 0.1 2 0.4 0.6zm-12-0.3h0.3v-1l-0.8-0.8-0.04 0.4-0.5-1 0.3 1 0.02 1 0.5-0.8 8e-3 0.9zm3 0h0.3v-0.5h-0.5v0.5zm2-0.07 1-0.06-0.01-2-0.6 0.8-1 0.4v1zm5 0.07h0.4l-0.4-0.4-0.4 0.4zm0.8-0.3 0.1-0.3-0.7-0.5-0.5-8e-3 1 1zm-12 0.07h0.4v-1l-0.5-0.3-0.3 1zm16 0h0.1v-0.3h-0.3v0.3zm29-0.7 0.3-0.5-0.6-0.7-0.4 0.4 0.4 1zm-40 0.07 0.2-0.2-0.4-0.4v0.7zm10 0.09h0.2l0.3-0.5-0.6-2h-0.4l-0.3 0.7 0.6 2zm1 0h0.1v-0.2l-0.6-0.4 0.4 0.6zm2-0.4 0.1-0.1-0.4-0.6-0.5 0.3 0.7 0.4zm31 0.1h0.1v-0.3h-0.3v0.3zm8 0h0.4l-0.4-0.4-0.4 0.4zm-58-0.4 0.2-0.1v-1h-0.8v0.5l0.3 0.8zm12 0.1h0.2v-0.8h-0.4v0.8zm1-0.09h0.3l-0.2-1h-0.4l-0.2 0.7 0.2 0.6zm5 0.07 0.03 0.02-0.3-1-0.5-0.3v-0.5h2v0.6l-0.8-0.3v0.4l1 0.9 0.8-0.3-1-2-2 0.2v0.7l0.8 0.7-0.3 0.7 0.6 0.3zm32-0.2h0.1v-0.3h-0.3v0.3zm-52-0.3h0.3v-0.6l0.5 0.3v-0.5l-0.6-0.4-0.5 0.7-8e-3 0.4zm2 0h0.2l0.3-0.8h-0.5l-0.3 0.8zm49-0.3 0.7-0.05v-0.9h-0.8v0.8l-0.5-0.3v0.6zm1 0.06h0.3l-0.3-0.5h-0.5l0.3 0.5zm7-0.2 0.1-0.3-0.3-0.3-0.3 0.3 0.4 0.7zm-61-0.3 0.4-0.3-0.2-0.2-0.6 0.3v0.6zm50 0.2h0.7l-0.7-0.5-0.7-8e-3v0.5zm-51-0.2h0.3v-0.8l-0.5 0.3v0.5zm24 0h0.2l0.3-1 1 0.8v-0.5l-1-0.7v-0.4l0.9 0.3-1-1-1 2 0.9 1zm32-1 0.08-1-0.6-0.6v3l0.4 0.4zm-1 0.9h0.2v-3l-0.8 0.6v2l0.4 0.4zm2-0.1 0.3-0.2v-1l-0.5-0.3v2zm6 0.1h0.1v-0.5h-0.6l0.3 0.5zm-63-0.3h0.3v-0.5h-0.5v0.5zm27-0.3 0.3 0.02v-0.2l-0.6-2h-0.5v-1l-0.8-0.3 0.3 0.5-0.5 0.3 0.02 1 0.7-1 0.4 0.6-0.7 0.4 1 1zm40 0.02h0.4v-0.2l-0.8-0.3v0.5zm-6-0.3h0.3v-0.5h-0.2l-0.3 0.5zm-61-0.3 0.6 0.02-0.3-0.5h-1v-0.5h-0.5v0.7l0.7 0.3zm62-0.1 0.2-0.2v-0.8l-0.8 0.7 0.3 0.5zm-33-0.4h0.3l-0.6-1-0.8-1-0.7-0.1v0.3l0.6 1 1 1v0.4zm24 0h0.3v-0.8l-0.5 0.3v0.5zm1-0.3 0.2-0.2-0.3-0.7-0.04 1zm-56-0.2h0.2v-0.7l-1-0.7-0.3 0.3 1 1zm62-8e-3 0.3-8e-3 1-0.7-1 0.08-0.6 0.7zm-30-0.8 0.1-0.4-0.6-0.2 0.6-0.7h-0.8l-0.9-1 0.4-0.4h-0.6v0.4l0.6 2h0.7l0.3 0.9zm30-0.3h0.4l-0.4-0.4-0.4 0.4zm-35-0.3h0.1v-0.3h-0.3v0.3zm-29-0.3h0.3v-0.2l-0.5-0.3v0.6zm-0.6-0.4 0.1-0.1-0.7-0.7 0.4 0.9zm35 0.05 0.2-0.2-0.3-0.7-0.04 1zm28 0.07h0.4l0.04-0.4 0.2-1 0.6-0.4-0.5-0.3-0.7 0.8h0.4l-1 0.8 0.3 0.5zm-26-0.3 0.3 0.03-0.05-0.9-0.4-1-2-0.1v0.4l0.6 1 1 0.6zm-0.7-1-0.2 0.3-0.8-0.5 0.7-0.7 0.5 0.5zm28 1 0.07-0.1 0.7-0.9h-0.9v1zm2 0.02h0.1v-0.3h-0.3v0.3zm-4-1h0.3l-0.4-0.7 0.2-1-0.8 1 0.5 0.9zm-24-0.3h0.3v-0.7l-0.6-0.6 0.4-0.6h0.5l-0.06 0.4 0.4 1h0.4l0.3-0.8-0.8-0.8h0.6l-0.7-0.8-1 0.7-0.7-0.3v0.6l0.8 2zm-4-0.4 0.2-0.2-0.4-0.4v0.7zm29 0.09h0.1l0.5-1-0.8 0.1-0.3 0.3 0.3 0.6zm-21-0.4 0.2-0.3 1-0.6-2 0.3 0.7-0.5-0.9-0.5 0.4-0.6 0.9 0.04-1 0.5 1 0.04-8e-3 -0.4-0.4-0.5-1-0.07v2l0.8 0.3 8e-3 0.9zm19-0.2 0.2-0.04 0.2-0.7-0.8 0.3-0.2-0.6-0.9 0.3v0.5l1 0.2zm-9-0.1h0.1v-0.3h-0.3v0.3zm-15-0.3h0.1l-0.4-0.6 0.7-0.5-0.9-8e-3v0.7l0.4 0.4zm21-0.4 0.4-0.5-0.3-1h0.6l-0.3-0.5h0.8l-0.06-1-0.2 0.9h-0.5v-0.5h-0.5l-0.4 1 0.5 0.5-0.5 1zm0.5 0.4h0.08l1-2v-0.9h-0.5l0.3 1-0.5-0.3-0.8 2zm-13-0.3h0.2v-0.5h-0.8l0.3 0.5zm1-0.2 0.4-0.2-8e-3 -0.9-0.5 0.7-0.3-1-0.06 1zm5 0.1 0.2-0.2-0.3-0.7-0.04 1zm12 0.07h0.1v-0.3h-0.3v0.3zm-11-0.3 0.5 0.02-0.3-0.3-0.7 0.3zm8-0.08 1 0.03-0.9-0.2v-0.5l-0.7 0.4 0.7-0.7v-0.7l-1 1 2e-3 0.3zm-10-0.2h0.1v-1h-0.5l0.3 1zm4 0h0.3v-0.8h-0.5v0.8zm1 0h0.1v-0.3h-0.3v0.3zm8 0h0.3l-0.3-0.8h-0.2v0.8zm-19-0.3h0.3v-0.5h-0.5v0.5zm0.9 0h0.4v-1l-1-0.06 0.9-0.2v-0.5l-0.6-0.4 0.4 0.6h-1v0.2l0.3 0.8h0.7l-0.3 0.8zm8-0.1 0.6-0.04 0.4-1-0.6-8e-3 0.8-0.5-0.9-8e-3v-0.5h-0.5v0.8h0.6l-0.3 0.3-1-0.9v0.9h0.8v1zm8 0.1h0.4l0.3-0.5-0.8 0.1-0.4 0.4zm-6-0.3h0.1v-0.3h-0.3v0.3zm-16-0.3h0.1v-0.5h-0.6l0.3 0.5zm7 0h0.3l0.7-2-0.6-0.2 0.3-0.5h-0.6v1h-0.8v-0.4h0.5v-1h-0.4l-0.7 1 0.3 1 0.5-0.3v0.8zm8-0.2 0.8-0.1 8e-3 -0.9 0.3-1-1-0.4 0.4 0.4-0.5 1-0.8-0.6-0.3 0.3h0.6l-0.1 0.6 1 0.4-2 0.09 1 0.4zm-12-0.05h0.1v-0.3h-0.3v0.3zm8 0h0.1v-0.3h-0.3v0.3zm-2-0.3h0.7v-0.6l-0.5 0.3v-0.8h0.8v1l0.8-1 0.02-0.4h-1l0.3-0.3-0.6-0.7-0.7 0.7v2zm0-1h-0.1v-0.3h0.3v0.3zm-7 1h0.1v-0.3h-0.3v0.3zm2-0.8h0.3v-0.5h-0.5v0.5zm8-0.2 0.1-0.3-0.3-0.3-0.3 0.3 0.4 0.7zm1 0.2h0.1v-0.3h-0.3v0.3zm2-0.3 0.2-0.2-0.3-0.7-0.04 1zm-2-0.2 0.1-0.1-0.3-1h-0.4l-0.3 1 0.7-0.3v0.7zm-9-0.3h0.7l-0.7-0.3-0.7 0.3zm-49 61-0.5 1e-3 -3-1-3-2-2-2 1 0.7 5 4v0.4l2 0.6 0.8 0.5zm7-0.5h-0.1v-0.3h0.3v0.3zm-3-1h-0.1v-0.3h0.3v0.3zm-3-2h-0.1v-0.3h0.3v0.3zm-0.7-0.3h-0.4l0.4-0.4 0.4 0.4zm-0.8-0.3-0.4-5e-3 -3-2-3-2-3-3-1-2 10 8zm2-0.3h-0.1v-0.3h0.3v0.3zm-1-0.5h-0.08l-1-0.8 1 0.6v0.2zm1-0.5-0.1 9e-3 -2-1-0.8-1-2-1 0.3-0.3 3 2 2 1zm-10-1h-0.09l-1-1 1 1v0.2zm-1-1h-0.1l-0.8-1-0.7-1 0.5 0.5 1 2zm16-1h-0.1l-0.6-1 0.2-0.2 0.6 1zm-12-1h-0.1v-0.3h0.3v0.3zm-6-0.3h-0.1v-0.3h0.3v0.3zm17-0.3h-0.1v-0.3h0.3v0.3zm-17-0.3h-0.1l-0.5-1-2-4-1-4-0.2-3h0.5l0.06 0.9-0.08 1 2 6 0.8 2 0.8 2zm17-0.3-0.07 0.07-0.5-0.7-0.7-2v-4l1-3 2-1 0.3 0.3-2 2-0.9 2-0.2 3 0.8 3zm-1-0.2h-0.1v-0.3h0.3v0.3zm-1-0.8h-0.1v-0.3h0.3v0.3zm1 0h-0.1v-0.3h0.3v0.3zm-15-0.3h-0.1v-0.3h0.3v0.3zm5-0.4-0.1 0.1-2-2-0.4-0.8 0.5 0.5 2 2zm8 0.1h-0.1v-0.3h0.3v0.3zm1-0.1-0.07 0.07-1-2-0.3-4 0.6-0.4v3l0.8 2zm-11-0.2-0.2 0.2-2-3v-0.5l0.5 0.3 1 2zm10-0.2h-0.1v-0.3h0.3v0.3zm-12-3h-0.1v-0.3h0.3v0.3zm-0.4-0.5h-0.2l-1-3v-0.3h0.5l0.7 3 0.7 1zm2-3-0.2 0.2 0.04-1 0.3 0.7zm-2-0.9-0.3 0.3-1-2-0.5-0.2-3-7-0.3-2 0.5 0.3v0.6l2 6 2 3 0.4-1 0.05 1 0.6 1zm1-0.4-0.1 0.1-0.4-2 0.3-0.3 0.4 2zm-3-0.5-0.2 0.2v-0.7l0.4 0.4zm4-0.4h-0.1v-0.3h0.3v0.3zm-1-1-0.2 0.2v-0.7l0.4 0.4zm-2-0.2-0.1 0.1 0.3-8 2-4 2-4 2-2 2-2 2-1 0.6 0.2-6 4-3 5-0.2 1-1 4-0.6 6zm10-0.6-0.2 0.2v-0.7l0.4 0.4zm-8-3-0.2 3-0.03-6 0.7-3-0.3 2zm9 2-0.2 0.2v-0.7l0.4 0.4zm-2-0.7h-0.1v-0.3h0.3v0.3zm2 0h-0.1l0.3-0.5h0.3l-0.3 0.5zm0.6-0.8h-0.1v-0.4l2-2 2-1 3-2h0.4l0.8-0.8-3-0.2 7 0.2 2 0.5v0.4l-5-0.5v0.5l2 0.02 3 1 0.2 0.7-3-1-4-0.02-2e-3 -0.4h-0.8v0.5h-0.5l-4 3-1 2zm-2-0.5-0.3 0.3 0.4-0.9 0.3 0.3zm0.9-2h-0.1v-0.5l0.5-0.3-0.3 0.8zm0.03-1h-0.1v-0.3h0.3v0.3zm5-1-0.8 0.6 0.3-0.8 1-0.6 0.2 0.2zm2 0.5h-0.4v-0.2l1-0.3-0.3 0.5zm-6-0.8h-0.1v-0.3h0.3v0.3zm3-0.8-1 0.6v-0.2l2-1 0.2 0.2zm-2 0.1-0.2 0.2-0.4-0.6 0.8-1v0.8l2-2-2 3zm0.04-0.3 0.3-0.3-0.3-0.3-0.4 0.9zm4 0.5h-0.1v-0.3h0.3v0.3zm-13-0.4-0.3 0.3 0.3-1 7e-3 -0.4h0.6l-0.4 1zm10-1h-0.1v-0.2l0.9-0.7-0.7 0.9zm-9-0.3h-0.1v-0.3h0.3v0.3zm6 0h-0.1v-0.3h0.3v0.3zm-6-0.5h-0.1v-0.3h0.3v0.3zm7 0h-0.1v-0.3h0.3v0.3zm4-0.6-0.7 0.4 0.8-0.8 3-1v0.4l-3 1zm-11 0.02-0.1 0.1v-0.5l0.8-1-0.6 1zm8-0.2h-0.1l0.3-0.5h0.3l-0.3 0.5zm3-0.5h-0.1v-0.3h0.3v0.3zm-3-0.3h-0.1l0.3-0.5h0.3l-0.3 0.5zm4 0h-0.1v-0.3h0.3v0.3zm-11-0.5h-0.1v-0.3h0.3v0.3zm13-0.3h-0.1v-0.3h0.3v0.3zm-4-0.3h-0.1v-0.3h0.3v0.3zm5 0h-0.1v-0.3h0.3v0.3zm0.8-0.3h-0.1v-0.3h0.3v0.3zm0.9-0.3h-0.4l0.4-0.4 0.4 0.4zm2-0.3h-0.7l0.7-0.3 0.7 0.3zm-5-2h-0.1v-0.3h0.3v0.3zm0.8-0.3-0.3-4e-3 2-0.9 3-0.7 3-8e-3 3 0.6v0.4l-5-0.5-4 1z"/></svg>
